<svg id="Layer_1" data-name="Layer 1" xmlns="http://www.w3.org/2000/svg" viewBox="0 0 49 40.69"><defs><style>.cls-1{fill:#1e87d2;}.cls-2{fill:#0d5d93;}.cls-3{fill:#fff;}</style></defs><title>icon</title><path class="cls-1" d="M44.36,1.28H10.06A3.33,3.33,0,0,0,6.72,4.58V30.81a3.33,3.33,0,0,0,3.34,3.29H44.37a3.33,3.33,0,0,0,3.34-3.29V4.58a3.34,3.34,0,0,0-3.36-3.29h0Z"/><path class="cls-2" d="M44.37,35.38H10.06a4.61,4.61,0,0,1-4.63-4.58V4.58A4.61,4.61,0,0,1,10.06,0h34.3A4.63,4.63,0,0,1,49,4.57V30.81A4.61,4.61,0,0,1,44.37,35.38ZM10.06,2.56A2,2,0,0,0,8,4.58V30.81a2,2,0,0,0,2.06,2H44.37a2,2,0,0,0,2.06-2V4.58a2.06,2.06,0,0,0-2.07-2H10.06Z"/><rect class="cls-3" x="1.26" y="14.72" width="40.9" height="24.51"/><polygon class="cls-3" points="2.34 7.59 2.34 13.72 42.34 13.72 42.34 7.17 2.34 7.59"/><path class="cls-2" d="M40.29,5H3.58A3.59,3.59,0,0,0,0,8.61v28.5a3.59,3.59,0,0,0,3.58,3.58H40.3a3.59,3.59,0,0,0,3.58-3.58V8.61A3.6,3.6,0,0,0,40.29,5h0ZM3.58,7.82H40.3a0.79,0.79,0,0,1,.79.79v4.64H2.79V8.61a0.79,0.79,0,0,1,.79-0.79h0ZM40.29,37.9H3.58a0.79,0.79,0,0,1-.79-0.79V16H41.09V37.11a0.81,0.81,0,0,1-.8.79h0Zm0,0"/><path class="cls-1" d="M14.81,11.94a1.37,1.37,0,0,0,1-.41,1.39,1.39,0,0,0,.41-1,1.42,1.42,0,0,0-.41-1,1.43,1.43,0,0,0-2,0,1.4,1.4,0,0,0-.41,1,1.37,1.37,0,0,0,.41,1,1.42,1.42,0,0,0,1,.41h0Zm0,0"/><path class="cls-1" d="M10.7,11.94a1.42,1.42,0,0,0,1-.41,1.39,1.39,0,0,0,.41-1,1.41,1.41,0,0,0-.41-1,1.43,1.43,0,0,0-2,0,1.4,1.4,0,0,0-.41,1,1.37,1.37,0,0,0,.41,1,1.35,1.35,0,0,0,1,.41h0Zm0,0"/><path class="cls-1" d="M6.6,11.94a1.37,1.37,0,0,0,1-.41,1.39,1.39,0,0,0,.41-1,1.42,1.42,0,0,0-.41-1,1.43,1.43,0,0,0-2,0,1.4,1.4,0,0,0-.41,1,1.37,1.37,0,0,0,.41,1,1.4,1.4,0,0,0,1,.41h0Zm0,0"/><path class="cls-1" d="M20.31,31.65a1.28,1.28,0,0,1-.91-0.38l-3.82-3.82a1.28,1.28,0,0,1,1.81-1.81l2.92,2.92,5.13-5.13a1.28,1.28,0,1,1,1.81,1.81l-6,6A1.28,1.28,0,0,1,20.31,31.65Z"/></svg>