<svg id="Layer_1" data-name="Layer 1" xmlns="http://www.w3.org/2000/svg" viewBox="0 0 52 35.43"><defs><style>.cls-1{fill:#1e87d2;}.cls-2{fill:#0d5d93;}</style></defs><title>icon</title><polygon class="cls-1" points="10.12 1.73 10.12 9.72 43.12 9.72 43.12 25.73 50.12 25.73 50.12 1.73 10.12 1.73"/><path class="cls-1" d="M8.65,20.66a1.27,1.27,0,0,0,0,2.54h4.88a1.27,1.27,0,1,0,0-2.54H8.65Zm0,0"/><path class="cls-1" d="M30.06,23.2h4.88a1.27,1.27,0,0,0,0-2.54H30.06a1.27,1.27,0,0,0,0,2.54h0Zm0,0"/><path class="cls-2" d="M48.56,0h-37A3.45,3.45,0,0,0,8.15,3.44v5H2.54A2.55,2.55,0,0,0,0,11V32.89a2.55,2.55,0,0,0,2.54,2.54H41.31a2.55,2.55,0,0,0,2.54-2.54V27h4.7A3.45,3.45,0,0,0,52,23.56V3.43A3.45,3.45,0,0,0,48.56,0h0ZM34.19,11a7.82,7.82,0,0,0,7.12,7.19v7.61a7.82,7.82,0,0,0-7.19,7.12H9.66A7.82,7.82,0,0,0,2.54,25.7V18.09A7.82,7.82,0,0,0,9.73,11H34.19Zm2.54,0H41.3v4.64A5.31,5.31,0,0,1,36.74,11h0ZM7.17,11a5.28,5.28,0,0,1-4.64,4.57V11H7.17ZM2.54,28.25a5.28,5.28,0,0,1,4.57,4.64H2.54V28.25Zm34.13,4.63a5.28,5.28,0,0,1,4.64-4.57v4.57H36.67Zm12.77-9.32a0.9,0.9,0,0,1-.9.9h-4.7V11A2.55,2.55,0,0,0,41.3,8.43H10.68v-5a0.9,0.9,0,0,1,.9-0.9h37a0.9,0.9,0,0,1,.9.9V23.56Zm0,0"/><path class="cls-1" d="M20.84,23.19H23a1.11,1.11,0,0,1,0,2.22h-3.9a1.27,1.27,0,1,0,0,2.54h1.55v1a1.27,1.27,0,1,0,2.54,0V28a3.65,3.65,0,0,0-.19-7.3H20.84a1.11,1.11,0,0,1,0-2.22h3.82a1.27,1.27,0,1,0,0-2.54H23.19v-1a1.27,1.27,0,1,0-2.54,0v1a3.65,3.65,0,0,0,.19,7.29h0Zm0,0"/></svg>