<svg id="Layer_1" data-name="Layer 1" xmlns="http://www.w3.org/2000/svg" viewBox="0 0 42.01 46.93"><defs><style>.cls-1{fill:#1e87d2;}.cls-2{fill:#0d5d93;}.cls-3{fill:#fff;}</style></defs><title>icon</title><rect class="cls-1" x="5.38" y="4.59" width="23.7" height="39.54" rx="3.45" ry="3.45" transform="translate(-6.77 6.63) rotate(-18.27)"/><path class="cls-2" d="M32.32,41.14l-17,5.62a3.56,3.56,0,0,1-4.41-2.42L0.2,12A3.56,3.56,0,0,1,2.3,7.43l17-5.62a3.56,3.56,0,0,1,4.41,2.42L34.42,36.57a3.56,3.56,0,0,1-2.1,4.57h0ZM3.14,9.72a1.62,1.62,0,0,0-.94,2.08L12.6,43.33a1.62,1.62,0,0,0,2,1.11l16.89-5.58a1.62,1.62,0,0,0,.94-2.08L22,5.26a1.62,1.62,0,0,0-2-1.11ZM14.46,25"/><rect class="cls-3" x="14.26" y="1.29" width="26.68" height="43.63" rx="3.75" ry="3.75"/><path class="cls-2" d="M37.81,0H17.62A3.89,3.89,0,0,0,14,4.12V42a3.78,3.78,0,0,0,3.61,4H37.81A4.29,4.29,0,0,0,42,42V4.12A4.39,4.39,0,0,0,37.81,0ZM17.7,3h20c1,0,2.28.61,2.28,1.58V35H16V4.58A1.57,1.57,0,0,1,17.7,3Zm20,41h-20c-1,0-1.7-1.47-1.7-2.44V37H40v4.56A3,3,0,0,1,37.73,44Z"/><path class="cls-1" d="M35.69,16.53a1.17,1.17,0,0,0-.5-0.53H22.78l-0.2-.77A1.65,1.65,0,0,0,20.78,14H19.48a0.52,0.52,0,1,0,0,1h1.31a0.77,0.77,0,0,1,.52.62l0.3,1.63v0.05L23.36,26a1.64,1.64,0,0,0,1,1.19,1.78,1.78,0,0,0-.09.55A1.73,1.73,0,0,0,26,29.5a1.89,1.89,0,0,0,1.72-1.9,2.53,2.53,0,0,0-.05-0.6H31a2.56,2.56,0,0,0-.05.6,1.8,1.8,0,0,0,1.72,1.81,1.71,1.71,0,1,0,0-3.41H24.94a0.4,0.4,0,0,1-.31-0.33L24.52,25h9.26a0.57,0.57,0,0,0,.64-0.42l1.41-7.43A0.87,0.87,0,0,0,35.69,16.53ZM32.64,27.36a0.42,0.42,0,1,1-.42.42A0.42,0.42,0,0,1,32.64,27.36Zm-6.68,0a0.42,0.42,0,1,1-.42.42A0.42,0.42,0,0,1,26,27.36Z"/><path class="cls-1" d="M27.71,42.2a1.88,1.88,0,1,1,1.88-1.88,1.88,1.88,0,0,1-1.88,1.88h0Z"/></svg>