<svg id="Layer_1" data-name="Layer 1" xmlns="http://www.w3.org/2000/svg" viewBox="0 0 49 40.08"><defs><style>.cls-1{fill:#0d5d93;}.cls-2{fill:#1e87d2;}</style></defs><title>icon</title><path class="cls-1" d="M0,3.61v31.1a3.62,3.62,0,0,0,3.61,3.61H27a1.23,1.23,0,1,0,0-2.46H3.61a1.16,1.16,0,0,1-1.16-1.16V11.42H44.84v6.74a1.23,1.23,0,1,0,2.46,0V3.61A3.62,3.62,0,0,0,43.68,0H3.61A3.62,3.62,0,0,0,0,3.61H0Zm44.84,0V9H2.45V3.61A1.16,1.16,0,0,1,3.61,2.45H43.68a1.16,1.16,0,0,1,1.15,1.16h0Zm0,0"/><path class="cls-2" d="M5.72,6.94a1.25,1.25,0,0,0,.87-0.36,1.22,1.22,0,0,0,0-1.73,1.26,1.26,0,0,0-1.73,0,1.22,1.22,0,0,0-.36.86,1.24,1.24,0,0,0,.36.87,1.2,1.2,0,0,0,.86.36h0Zm0,0"/><path class="cls-2" d="M10.2,6.94a1.25,1.25,0,0,0,.87-0.36,1.23,1.23,0,0,0,.36-0.87,1.2,1.2,0,0,0-.36-0.86,1.26,1.26,0,0,0-1.73,0A1.22,1.22,0,0,0,9,5.71a1.24,1.24,0,0,0,.36.87,1.19,1.19,0,0,0,.86.36h0Zm0,0"/><path class="cls-2" d="M14.68,6.94a1.24,1.24,0,0,0,.87-0.36,1.23,1.23,0,0,0,.36-0.87,1.2,1.2,0,0,0-.36-0.86,1.26,1.26,0,0,0-1.73,0,1.22,1.22,0,0,0-.36.86,1.23,1.23,0,0,0,1.22,1.23h0Zm0,0"/><circle class="cls-2" cx="33.98" cy="25.35" r="8.61"/><path class="cls-1" d="M40.89,33.71l6,6A1.23,1.23,0,1,0,48.64,38l-6-6a10.79,10.79,0,1,0-1.74,1.73h0ZM26,25.35a8.24,8.24,0,1,1,8.24,8.24A8.25,8.25,0,0,1,26,25.35h0Zm0,0"/></svg>