<?xml version="1.0" encoding="utf-8"?>
<!-- Generator: Adobe Illustrator 16.0.0, SVG Export Plug-In . SVG Version: 6.00 Build 0)  -->
<!DOCTYPE svg PUBLIC "-//W3C//DTD SVG 1.1//EN" "http://www.w3.org/Graphics/SVG/1.1/DTD/svg11.dtd">
<svg version="1.1" id="Layer_1" xmlns="http://www.w3.org/2000/svg" xmlns:xlink="http://www.w3.org/1999/xlink" x="0px" y="0px"
	 width="194.5px" height="65.5px" viewBox="0 0 194.5 65.5" enable-background="new 0 0 194.5 65.5" xml:space="preserve">
<metadata><?xpacket begin="﻿" id="W5M0MpCehiHzreSzNTczkc9d"?>
<x:xmpmeta xmlns:x="adobe:ns:meta/" x:xmptk="Adobe XMP Core 5.3-c011 66.145661, 2012/02/06-14:56:27        ">
   <rdf:RDF xmlns:rdf="http://www.w3.org/1999/02/22-rdf-syntax-ns#">
      <rdf:Description rdf:about=""
            xmlns:dc="../purl.org/dc/elements/1.1/default.htm">
         <dc:format>image/svg+xml</dc:format>
         <dc:title>
            <rdf:Alt>
               <rdf:li xml:lang="x-default">Print</rdf:li>
            </rdf:Alt>
         </dc:title>
      </rdf:Description>
      <rdf:Description rdf:about=""
            xmlns:xmp="../ns.adobe.com/xap/1.0/default.htm"
            xmlns:xmpGImg="../ns.adobe.com/xap/1.0/g/img/default.htm">
         <xmp:MetadataDate>2016-07-04T14:47:41+07:00</xmp:MetadataDate>
         <xmp:ModifyDate>2016-07-04T14:47:41+07:00</xmp:ModifyDate>
         <xmp:CreateDate>2016-07-04T14:47:41+07:00</xmp:CreateDate>
         <xmp:CreatorTool>Adobe Illustrator CS6 (Windows)</xmp:CreatorTool>
         <xmp:Thumbnails>
            <rdf:Alt>
               <rdf:li rdf:parseType="Resource">
                  <xmpGImg:width>256</xmpGImg:width>
                  <xmpGImg:height>76</xmpGImg:height>
                  <xmpGImg:format>JPEG</xmpGImg:format>
                  <xmpGImg:image>/9j/4AAQSkZJRgABAgEASABIAAD/7QAsUGhvdG9zaG9wIDMuMAA4QklNA+0AAAAAABAASAAAAAEA&#xA;AQBIAAAAAQAB/+4ADkFkb2JlAGTAAAAAAf/bAIQABgQEBAUEBgUFBgkGBQYJCwgGBggLDAoKCwoK&#xA;DBAMDAwMDAwQDA4PEA8ODBMTFBQTExwbGxscHx8fHx8fHx8fHwEHBwcNDA0YEBAYGhURFRofHx8f&#xA;Hx8fHx8fHx8fHx8fHx8fHx8fHx8fHx8fHx8fHx8fHx8fHx8fHx8fHx8fHx8f/8AAEQgATAEAAwER&#xA;AAIRAQMRAf/EAaIAAAAHAQEBAQEAAAAAAAAAAAQFAwIGAQAHCAkKCwEAAgIDAQEBAQEAAAAAAAAA&#xA;AQACAwQFBgcICQoLEAACAQMDAgQCBgcDBAIGAnMBAgMRBAAFIRIxQVEGE2EicYEUMpGhBxWxQiPB&#xA;UtHhMxZi8CRygvElQzRTkqKyY3PCNUQnk6OzNhdUZHTD0uIIJoMJChgZhJRFRqS0VtNVKBry4/PE&#xA;1OT0ZXWFlaW1xdXl9WZ2hpamtsbW5vY3R1dnd4eXp7fH1+f3OEhYaHiImKi4yNjo+Ck5SVlpeYmZ&#xA;qbnJ2en5KjpKWmp6ipqqusra6voRAAICAQIDBQUEBQYECAMDbQEAAhEDBCESMUEFURNhIgZxgZEy&#xA;obHwFMHR4SNCFVJicvEzJDRDghaSUyWiY7LCB3PSNeJEgxdUkwgJChgZJjZFGidkdFU38qOzwygp&#xA;0+PzhJSktMTU5PRldYWVpbXF1eX1RlZmdoaWprbG1ub2R1dnd4eXp7fH1+f3OEhYaHiImKi4yNjo&#xA;+DlJWWl5iZmpucnZ6fkqOkpaanqKmqq6ytrq+v/aAAwDAQACEQMRAD8A77rH5i6VYXT20MT3ckR4&#xA;yMpCoCOoDGtafLNVqO1scJcIHFTjT1MYmuaBtPzD1fUZvR03R/VkAqR6hag8SeKAfTlMO1cmQ1CF&#xA;n3sBqZS5BA6l+YPmmyuGtriygtZlAJV0cn5g86EZRm7UzwPCYgH4/rYS1MwaISyX8xPND/ZnSL/U&#xA;jQ/8SDZjy7VznrXwYHUzQkvnLzPLXlqEgr/JxTr/AKoGUy7Qzn+IsDnn3oOXXdbm/vdQuXB7GVyN&#xA;/auVS1OQ85S+ZYnJI9ShJJppTWSRnPWrEn9eVGRPNiSyfyF5gvLTV4LB5Geyuj6fpMahXP2WXw32&#xA;ObLszVSjkEL9JcjT5CJV0ZP+YPnt/LMVvFawLPfXQZk9Svpoi0FWCkE1J2Fc7nQaHxySTUQ0drdq&#xA;flgBEXKXyQPkD8ybnzBfvp2oW0cN1wMkMsHIIwU7qVYsQaGvXLdf2cMMeKJ282jsrtmWonwTAEqv&#xA;Znual37sVdirsVdirsVdirsVdirsVdirsVdirsVdirsVdirzLz5+Z2q6Trkml6XHEBbBfXllUuWd&#xA;gHou4AABAzd6Hs2GTHxzvd5jtTtrJiynHjA9PO2V+RPNT+ZNE+uTRrFdRSNDcIleJYAMGUEkgENm&#xA;BrtL4M+Ecna9l646nFxEVIGiyLMN2TsVdir5/JJNTuT1OcG6V6L+VRj+ragAP3oeMse/EhuP6jnQ&#xA;di1wy79nO0nIr/zTs1aws7wL8UcpiLezryFfpTJdtY/TGXnSdXHYF5vnOuA7FXYq7FU08r/8pHpv&#xA;/MRH/wASzK0X99H+sGzF9YZ/5+8iDzPDbyQTi3vbXkEZwSjo1Kq1NxQioOehaDXeASCLiUdq9l/m&#xA;gCDUooHyF+W0vl7UJNRvblJ7goYoY4geKhiOTEtQk7U6Zbru0RmjwxFBo7L7GOnmZyNmqFM7zVO+&#xA;dirsVdirsVdirsVdirsVdirsVdirsVdirsVdirsVfPn5kf8AKbap/wAZE/5NLnX9nf3Efx1fPO2P&#xA;8an7/wBAZ/8Akn/xwL7/AJiv+Za5qO2f7wf1f0vQezf9zL+t+gPRM070bsVdir5/zg3Ssz/K664a&#xA;xc256TQch/rIw/gxzcdjTrIR3hytIfUQyzz9a+v5XuiPtQlJV/2LAH/hSc2nacOLAfLdydQLgWI+&#xA;V/IEupQJe6g7W9o+8UaU9Rx/NU14jw23zVaLss5BxT2j9rjYtNxbnkzCLyJ5WjQL9SD+LM8hJ/4b&#xA;NvHs3AB9P3uUNPDuSvWvy102aJpNLY2s4FViZi0bHwqasuYuo7IgRcPSfsa8mlB5PN7q1uLW4ktr&#xA;hDHNExWRD1BGc7OBiSDzDgEEGij/ACv/AMpHpv8AzER/8SzI0X99H+sGeL6wyr81/N2q6OtnY6bK&#xA;beS5DyTTqBzCqQFVSelTWp656T2VpIZLlIXTh9vdoZMPDCBri5lLvys87a5f6s2k6lO13E8TSQyv&#xA;QyKyU2LdSCPHL+09FjhDjiK3cfsPtLLkyeHM8QrbvSrz35981QeZLyxtbp7K2tH9OOOMKCQAPjZi&#xA;CTy65fodDiOISI4iXE7U7V1Ec8oRPDGJY9/j7zl/1dp/vH9My/yGH+aHX/yrqf55d/j7zl/1dp/v&#xA;H9MfyGH+aF/lXU/zy3/j/wA5f9Xaf7x/TH8hh/mhf5V1P88vQvyz87a7q6ahb6h/pklpCJoJQqox&#xA;O49NuIANe22ajtLRY8fCY7WXouxe0subijP1cIsfqYF/ysbzh+kfrx1CT7fP6tX9zSv2PT6Upt4/&#xA;Tm1/k/Dw8PD8eroP5Y1PHx8R93T5Pe9OvYb+wtr2H+6uYklT5OoYD8c5TJAwkYno99hyjJASHKQt&#xA;Beadej0LQrrU2USNCoEUZNOUjkKo+VTU+2W6XB4uQRaNdqhgxGfd97xBPzG85Lei7/SUjNyqYWA9&#xA;Iiv2fTpxp8s6c9n4eGuH9bw47Y1IlxcZ/R8nufl3WYta0W01OJeAuEqyVrxcEq619mBzltRhOOZi&#xA;ej3Wk1IzYozHVE6lfRWGn3N9L/d20TzOOlQilqfTTIY4GchEdS25soxwMjyiLeFj80POA1M3v1z9&#xA;3z5fUyq+jxr9ilK0ptWtffOp/kzDw8NfHq8J/Lep4+Li27unu/G72y/13T9O0j9KX7/V4OCuVbdu&#xA;TCoQDu2czjwSnPgjuXtsuqhjx+JPYfjZ5Trn5ya5cyMmkxJYwD7MjgSzH3PKqD5cT8832DsfHEes&#xA;8R+x5TU+0WWR/dgRHzP6mPH8wvOZfn+lZq9afDT7qUzM/k/B/NDr/wCVtTd8ZT7Qvzh161mRNWVb&#xA;+26OwVY5gPEFaKfkR9OYmfsjHIej0n7HP0vtDlgf3nrj8i9d0nVrDVrCK/sJRLbyj4W6EEbFWB6E&#xA;Zz2XFLHLhlzev0+ohlgJwNgvCPzI/wCU21T/AIyJ/wAmlzq+zv7iP46vBdsf41P3/oCc+SPPFh5Z&#xA;8sXgZPrF/Pck29sDQUEajm57LX78xtbopZ8o6RA5ub2Z2nDTYJdZmWw+A5pXf/md5zvJS4vvqyE1&#xA;WKBFRR9JBY/Scvx9m4YjlfvcXL21qZn6uH3fi1+m/mj5xs5VZ7wXcQ+1FOisD/slCv8AjgydmYZD&#xA;lXuTh7b1MDvLiHn+LeueUPOWneZbNpYAYbqGgubVjUrXoQf2lPjnPavRywyo7g8i9f2f2jDUxsbS&#xA;HMPHs84cVPPJN19X8z2LVosjmI+/qKVH4kZm9nT4c8fl827AamHsNxBDcQPBMgkikBV0PQg9RnWy&#xA;iJCjyLsyL2Yl5483zaSU0/T+K3bpyeUgERqdlCg7VNO+artHXnF6IfV9zjZ83DsObCbfzl5lhnEw&#xA;v5HNalJDzQ+3E7fdmmj2hmBviLiDPMdXqHlnX4db01blQEmQ8LiIfsuPD2PUZ02j1QzQ4uvV2OLJ&#xA;xi2Lfmfo6cLfVo1o9fQuKd9iUY/KhH3ZrO2cHLIPcXG1cP4mJeV/+Uj03/mIj/4lmq0X99H+sHGx&#xA;fWEb+d3/AB1dN/4wP/xPPVOxfol73S+0v95D3JV+UX/KZR/8YJf1DL+1v7n4hxPZ/wDxke4vaL3R&#xA;dHvnD3thb3TjYNNEkh+9gc5qGacfpJHuL2uTTY5m5RjL3gFDf4T8rf8AVmsf+kaH/mnJ/msv8+Xz&#xA;LV+Q0/8AqcP9KP1PNvzO1TyxZBtF0jTbJL0/713UcEIMQ/32rBah/Hw+fTddm4ssvXOUuHoLO7zX&#xA;bWfBD91jhDi6kRG3l73n+l6Ze6pfw2NlGZbmduKKNvcknsANyc2+XLGETKXIPP4MMssxCIuRe/8A&#xA;kzyja+WtMNtG3q3UxD3dxSnJgKAAfyr2zktZqzmlfQcn0Ds7s+OmhwjeR5l4p550b9Eeab+0UUhZ&#xA;/Wg8PTl+MAf6teP0Z02izeJiB6vE9p6fwc8o9Lse4vVPyi1X655TW2Y1ksJXhIPXg37xT/wxH0Zo&#xA;e1sXDmv+cHq+wM/Hp+HrA1+lJ/zt1TjaadpaneV2uZR7IOCffyb7syexcW8p/BwvaXPUY4+/f9Ty&#xA;bi3ENQ8SSA3ao6j8c39vJU9e/JTVfV0y+0x2+K2kWaIH+SUUIHsGT8c57tnFUhLv2ew9m89wljPQ&#xA;3800/NzVvqXlRrZWpLfyrCAOvBfjc/L4QPpyjsnFxZb/AJrldv5+DT8PWZr9LyTyjo/6X8yWFgV5&#xA;RSShpx/xUnxv96rTOg1ebw8UpeTyPZ+n8bPGHS9/d1ZF+bfmGS/8wHTI2/0PTgF4joZmFXb6Ps/f&#xA;mH2VpxDHxHnL7nY9v6s5M3APph9/42UPyx8o2+vapLPfLzsLEKzx9BJI5PBT7fCSf7cl2lqzigBH&#xA;6pMOxez458hM/oj9pe1/orS/q/1b6nB9Xpx9H004U8ONKUzmvFld2be28DHXDwiu6njH5o+ULXQt&#xA;RgurBPTsb4NSIbiORKcgP8kg1A+edJ2ZqzliRL6ovF9t9nxwTEobRl9hRP5O67Na68+kuxNtfozI&#xA;nYTRryDD5oCD9GQ7XwCWPj6x+5s9ntUY5fD/AIZ/eP2JJ+ZH/Kbap/xkT/k0uZXZ39xH8dXB7Y/x&#xA;qfv/AEBC+T/LM/mLWorBGMcIBkuphvwiXqR7kkAZPV6kYYcXXo1dn6I6jKIDl1Pk9xsfJHlOytxB&#xA;Fpdu60ozzRrK7fNnDHOXnrc0jZkfue6xdmaeEaEI/EX97zj80fIdnpMaavpUfpWkjiO5txuqMfss&#xA;teit0I7HNz2ZrpZPRPn0LzfbfZccQGTGKj1HcxnyLrUmkeaLG5DFYZJBBcjsYpSFNf8AV2b6Mztd&#xA;hGTER15h1fZmpOHPGXQmj7j+LROeJPWK1lcG2vILkdYJEkFPFGB/hk8c+GQPcUxNG3vQIIBBqDuD&#xA;ncu5eP8Anz1P8V33P/ivj4cfSWmcl2nfjyvy+51mo+ssfzAaGZ/lfdyJrFxag/upoC5H+VGwofuY&#xA;5uOxpkZDHoQ5WkPqIZj53gWbyvfq37Kq4Pujhv4Zt+0Y3gk5WcXAvL/K/wDykem/8xEf/Es5rRf3&#xA;0f6wdfi+sI387v8Ajq6b/wAYH/4nnqnYv0S97pfaX+8h7kq/KL/lMo/+MEv6hl/a39z8Q4ns/wD4&#xA;yPcXumcs92wb8xvPyaJbtp2nuG1aZfiYb+gh/aP+Uf2R9PhXadnaDxTxS+gfa6LtjtUYBwQ/vD/s&#xA;f29zxaGG6vbtYolee6uHoqirO7sfxJOdKSIizsA8VGMpyobyL3jyF5Ig8uWHqTASarcKPrMo3Cjr&#xA;6aew7nufozlddrTmlt9A5fre87K7NGmhZ/vDz/UyrMB2zy787NHrHYawi7qTazn2NXj+74vvze9j&#xA;Zt5Q+Ly3tJp9o5B/VP3j9KU/kxqv1fX7nTmNEvoeSjxkh+If8IzZf2xivGJfzT97iezmfhzGH84f&#xA;aP2WlH5m6p+kPON5xNY7Tjax+3pfbH/IwtmT2bi4MI89/wAfBw+2s/iamXdH0/L9tpvN5Vp+U0V+&#xA;E/0lbj683j6bn0afLiFfMYar/CzHpXD+lzJaH/W8T/i4uL4cv2pZ+Vmq/UPOFsjNSK9VrZ/m3xJ/&#xA;w6gZf2pi48J/o7uL2Hn8PUgdJbfq+1M/zm1X6x5gt9OU1Sxhq48JJviP/CBcp7HxVjMv5x+5yvaL&#xA;PxZhD+aPtP7KR/5KaMWnvtYkX4UAtYG/ymo8n3Dj9+U9s5thD4t/s3p95ZT7h+n9DAfM0jS+Y9Vk&#xA;b7TXk5P/ACMbNtphWOP9Ufc6DWm80z/Sl96tonm/zDocMkOl3X1eOVucg9OJyWAp1dWORzaTHlNz&#xA;F/Nnpu0M2AEY5UD5D9ITL/laPnr/AKuf/JC3/wCqeU/yZg/m/af1uT/Ler/n/ZH9SW635v8AMWuQ&#xA;Rwapd/WIom5xr6cSUalK1RVPTLsOkx4jcBXzcbU9oZs4AySsDyH6Ann5X6Fqk/mq0vRbyJZ2vOSW&#xA;dlITdGUKCdiST0zF7TzwGIxvcud2JpcktRGVHhj1+CA/Mj/lNtU/4yJ/yaXLuzv7iP46uP2x/jU/&#xA;f+gMw/I6GPjq89KyVgQHwX4z+Oa3ts/SPf8Aodz7MxHrPXb9L1PNE9Uxv8x4o5PJWqCSgAjVgT/M&#xA;silfxGZvZxIzxdb2xEHSzvu/S+ewSCCDQjcEda51z54yjPCHu3Yq9v8ALl19a0Gwn6loEDf6yrxb&#xA;8RnaaSfFiifJ2+I3EMK/M7RpVuodVjUmF1EU5H7LKfhJ/wBYGn0Zpu2NOeIZBy5FxNVDfiYLmkcN&#xA;nP5X6XO17cakykQJGYY2PRnYgmn+qF/HN32NhPEZ9KpzNJDe2T+fLxLbyxdBj8c/GGMeJZgT/wAK&#xA;Dmy7TyCOE+ezfqJVAvM/K/8Aykem/wDMRH/xLOc0X99H+sHAxfWEb+d3/HV03/jA/wDxPPVOxfol&#xA;73S+0v8AeQ9yVflF/wAplH/xgl/UMv7W/ufiHE9n/wDGR7i9H/MDzzD5dsvQtismrXCn0IzuI16e&#xA;o4/4iO5+nNNoNEc0rP0D8U9J2r2mNPGo/wB4eXl5l4TNNc3dy80rNNczuWdj8TM7Hf6Sc6oARFDY&#xA;B4OUpTlZ3kXtP5b+QV0W3XU9RQHVpl+BDQ+gh7D/ACz+0fo8a812jr/EPDH6B9r2vY/ZXgjjn/eH&#xA;7P297Os1TvnYqk/nDRv0x5bvrACsrxl4PH1Y/jT72FMydJm8PKJOH2hp/GwSh1rb3jk+ftC1WXSN&#xA;YtNSjXk1rIHKdOS9GX6VJGdbnxDJAxPV890uc4ckZj+EqMSXOo6ikYPO6vJgoPjJK1PxJyRIhHyA&#xA;YREsk6/ikftL6RfR7VtEOj0pam2+qgU6Jw4fqzjBmPHx9bt9KOnj4Xh/w8PD9lPm/wD0rS9U/ku7&#xA;Gf7pIX/gy52e04eUh975t6sWT+lE/aFTXdUfVdYvNRcEG6laRVP7Kk/Cv0LQYMGLw4CPcGWqznLk&#xA;lM/xF755E0f9E+VbC1ZeMzx+tP485fjIP+rXj9Gcnrs3iZZHpy+T33Zen8LTxj1qz8XjH5h6bJYe&#xA;cNSRgQtxKbmM+Im+Mkf7IkZ0nZ+Tjwx8tvk8Z2vhOPUzHeb+e7L/AMlNYgR7/SJGCyylbi3U/tUH&#xA;GQD3ACn781/bOEnhmPc7f2b1AHFjPM7j9L1bNA9YgNc13TdE0977UJRHEuyr+27U2RB3Jy7Bglll&#xA;wxDj6nVQwQ45mh97F/KX5n2vmDWTphsWtWdWa3kMgk5cBUhhxXjtv1OZur7MOGHFdur0HbcdRk4O&#xA;Hh7t7eZ/mR/ym2qf8ZE/5NLm87O/uI/jq8x2x/jU/f8AoCa/lH5httM1yazunEcGoqqLIxoBLGTw&#xA;BJ8eTD50zH7W05njEhzj9zl9gauOLKYy2E/vHJ7dnMPcPPfzg8x21to36FicNeXrK0yA7pCjcqnw&#xA;5Mop7VzcdkacynxnkPved9oNZGOLwh9UufueT6Fpz6lrNlYKKm4mSNvZS3xH6Fqc3+fJwQMu4PJ6&#xA;XD4mWMO8hOs8Me0dir1j8ubr1vLUcdam2lkj+8+p/wAb51PZM7w13E/rdlpjcE21XVdKtp4LHUSq&#xA;x3wdUMgBjJXjVWr0ryHXbMvPnxxIjP8Ai+TZOcRseqA/wD5VMnqfU9ia8BJJx+7llH8mYLvh+0sP&#xA;y8O5OGfTtMsgWMdpaQig6IgHgMyyYY49IxDbtEdweV+c/NH6bvFS3qthb1EQOxdj1cj9Wcv2hrfG&#xA;lQ+kfi3XZ8vGduSA8r/8pHpv/MRH/wASynRf30f6wYYvrCZ/nfazfW9LuuJ9AxyRc+wcENQ/MHbP&#xA;UuxZCpDq6j2lgeKEulEJT+T1tNJ5sMyKTFBbyGR+w5UUfecv7XkBhrvLiez0CdRfQRLFvMF7f3ut&#xA;3txqHIXbTOJUatUKmnDfstKZn6eEYwAjyp1WryTnllKf1X+B8EHbXNxazpcW8jRTxHlHIpoykdwc&#xA;slESFHk0wmYkGJohNv8AGvm3/q73f/I1v65j/k8P82Pycv8AlLUfz5fN3+NfNv8A1d7v/ka39cfy&#xA;eH+bH5L/AClqP58vmyTyD5380y+ZbOynu5b62un9OWKU8yAQTzDHccaV+WYev0WIYjIARIdl2V2l&#xA;nOeMTIyjLve1ZzL2z56/MDQn0fzReRBCttcObi1alFKSfEQP9VqrnX6DP4mIHqNi+edraU4c8h/C&#xA;dx8f1Jh+VGiSah5piuitbbTgZ5GPTmQVjHz5fF9GVdqZuDER1lt+tyOwtMcmoEv4Yb/q/Hk91zlX&#xA;u3hH5q6Q1h5tnnC0gv1W4jPblTjIPnyFfpzquy83HhA6x2eD7d0/h6gnpPf9aVeSdCfWvMlnZ8C8&#xA;AcS3RpsIo92r4cvs/M5frc/hYjLr097idm6Xxs8Y9OZ9w/FPozOOfR2JfmF5IXzHYpLbcU1S1B9B&#xA;m2DqdzGx/FT2PzzYdn63wZUfpP4t1Ha3Zn5mFx/vI8vPyeITQaro+oBZVlsr+3YMtao6kdCD/EZ0&#xA;4lDJHapRLw8o5MM97jMMoh/N3zjHAImkglYCnrPEOf8AwpVfwzBPZOEm9/m7SPb+pAqwfOmOalq2&#xA;t69erJezS3t03wxJStK/soiig+QGZuPFDFGojhDrc2oy55XImUvxyD1T8sPIV1pBbV9UT076VOFv&#xA;bnrGjfaZ/wDKbw7D8ND2nrhk9EPp6l6vsTsuWH95k+o8h3ftYD+ZcUkfnbU+aleTRste6mJaEZtu&#xA;zTeCP46ug7ZiRqp35fcELZeTdYvvLkmuWkZmihmaKSFQefBVVvUUftAE0NP60nPWQjk8M7WGrH2d&#xA;knhOWIsA1X6Vtp5382WlsLaDVJ1hA4qpbkQPBSwJH0YZaLDI2Yi0Y+0tRCPCJmkommuLqdpZneee&#xA;U1Z3JZ2Y+JNSTmQIiIobBw5SlI2TZL1r8rPIlzYP+nNUiMVyylbK3cUZFYbyMOxI2Azn+1NcJ/u4&#xA;cur1vYfZcsZ8XIKl0H6WFMrKxVhRgaEHsRnlRDmJppHlfW9WT1LO3LQg09ZyESvsW6/RmTg0eXLv&#xA;EbNkMUpck402+8weS5nS8sudtc0PEt8JZe6yLyANOozLw5MujNSj6T+ObbGUsXMJT5k8y3eu3STT&#xA;IsUUQKwwqSQtdyST1JpmLq9XLPKzsA15cpmULa63rFogS2vZ4Yx0RJGC/wDA1plUNRkjtGRHxYjJ&#xA;Icii7LS/MnmGQyRiW74fC08zkqPbk5/AZbjw5s5sXLzP7WUYTn5qer+Wta0kBr23KxE0EykOlfmt&#xA;afTkc+jyYvqGyJ4pR5rvKcbyeZNOVBUidWI9l+I/gMOhF5o+9OEesPY72wsr+3a2vYI7mBt2ilUM&#xA;tR0ND3ztYZJQNxNF2OXFHIOGQBHmp6bo+l6ZE0Wn2sVrGxBcRKF5EbAsRufpw5M05m5G2OHT48Qq&#xA;ERH3IbUfKvlzUZjPe6dBPOacpWQBzTxYUJyePVZICoyIDXm0OHIblAEoT/AHk3/q0wfcf65Z+fzf&#xA;zi0/yVpv5gd/gDyb/wBWmD7j/XH8/m/nFf5K038wJVrGkfljo80MOo2UEMs6s8SCKWQlUoGP7sNs&#xA;OQx/P5v5xX+StN/MCZ2cPk7RtJfXdNtoVtGiEi3FtH6jyI1OKpSrHkSAF8cqy6jJPaRJb8OjxYjc&#xA;IgFP435xq5UoWAPFuoqOhp3ylyULqWj6VqcSxahaRXSLUoJVDcSdiVJ3H0ZZjzTgbiSGnNp8eUVO&#xA;Il70N5dfQ/QuoNHt0t4bO5ktZ0RBGPWipy6fa69cGTJKZuRspxYYYxUAIjyRS6nbnVH00q63CxCd&#xA;SykI6FuJ4P0JU05DtUZBtU9Y0LSNZt1g1O1S5jU1TlUFSf5WUhh9By3DnnjNxNOPqNLjzCpjiCzR&#xA;fLmiaJG6aXaJbCSnqMCzM1OlWcsxpXxw5tRPL9ZtGm0eLAKxx4bTLKXJQMWs2UuoX2noT9Y06OKW&#xA;55DioWcOUox2/wB1muKpRod9a+bNOkfVdKgVYX4LDLylrVQwcCaKFlDBhxPHfJwyygbiSGrLghkF&#xA;TAl71O/8i+RLW1uL6fS4xFbxtNLxMn2Y15Gihh2GZQ7Qz/znCPZGl/mD7URpw8raXFps9hYLbR6r&#xA;wW3uIoehkTmglcAsvIbCvfbKMmec/qJLlYdLixfRER+DIcpchK9X8saBrDpJqVlHcyRiiSNUMB4c&#xA;lINPbL8WpyY/pNOLqNFhzEGcQSEfa2ltaW8dtaxLDbxDjHEgAVR7AZVKZkbO5b8eOMIiMRQDH4ND&#xA;8l+aLG31gadFLHeL6qSlDFIwJ6vwKkn55fj1mWAoSLi5uzsGQ3KAv8dyMsvLflXRaXNvZW1oykKL&#xA;hwOQLkKoEjkkcmIHXBk1WWe0pEssOgw4jcIgFOcx3LYnrv5eadqV293BO1nNKeUoCh0YnqQtVoT8&#xA;81Wp7KhklxA8JLjZNMJGxsxzz1ql9ZahHpFnI9rYWkUYjjiJTlVepIoT4Zr+0s0oT8OJ4YxAaNRM&#xA;g8I2AR3k+W68xaNqWkajI00aKhguH+No2blTc9aFajfxy7QGWoxyxzN9x7meEmcTEt/8qo/7Wn/J&#xA;D/r5h/kT+n9n7V/J+bv+VUf9rT/kh/18x/kT+n9n7V/J+aG87XV5osVhodhI0FpHbh5HjqjSOWKn&#xA;kR/q1p75X2jOWERxQNRr5sc5MKiOS/yHf3mrC+0XUHa5spLcuDIS5Q8gtAx/1qj5bYezMssvFjnv&#xA;Gk6eRlcTyZR5c8m6bojmeNmuLthx9d6CgPUKo6VzZ6TQQw7jeXe5GLAIe9Pszm52KuxV2KuxVgnn&#xA;ZvR816ZcNqFzpaLYXaLeWtv9ZYu0sFI+HpT/AGhU7Cu2xxVLJRcWvkrQNP1GxeCEtO09xIt6PTMb&#xA;t6RlhtWEpkuFfnxZqBq+wxVE2ml3Ws6Z5Lg1VLmWIC4/SCyGRWISFgizsCG+0B9o74qybyTBPbaP&#xA;NayiQJbX17DbCXkWECXUgi3bcrwpxPhirDW0CeE6lrEUFyuqjzKpt3BlH+jNcRB+MY+ExspYsab9&#xA;+mKorVdRv386Q+nHPbTpqMEBjH11+dp8KtKTyFokT8qcQp33+10Vdqfl+VpfMesrHc/pOHVbb9Gu&#xA;rSjjGq2vNokB4kPVlY03A9sVQGuKL/zxfW11fIlhDeWTPdyPc/u0CKXtI/SDW682+0ZGU/F0OxxV&#xA;m/nwakfK14NOM4uC0PI2nL1xD66ev6fH4uXpcum/hirELawuOHnNvK6XqC4sbNdOml+sK7OgnDiB&#xA;7n49u2/U7YqnnkC3EFxqKxXZeDjBzsTBeQiGX4+T/wCls7c5P2wD1FT1xVLPO8Dzaxq0epC/e2fT&#xA;AmhR2YuTG1ywlEu1v8Jk+ztJtx67VxVDeZrm8t/LmkWvozwzQ6VG1u6fXub3JjVRCkdq0aiVWUEN&#xA;Kfhr064qmY0T/EGs6NLrEc0lv+hBJOtZI0Ny7x/aKlfiWrEA/PtirGNQvdSOjeU7e/nJuJtNuEuL&#xA;W6a5T0nHBI7mVbcPMzDovJaE1+IHFXp/lmC1g8vadDa3IvIEt4wt2p5CU8fikrU/aapxVgXknQZ9&#xA;Kj8lTwwXMVxdLcpq5cy/YFvI0ayq3woFcKF2H44qt0PT5pjo9re215P5mh1JptckuBceiYonkZZH&#xA;dj6DoKRmEKTvSn7WKosaBJHPNrCR3I1T/EiCOTlLtZvdIjqqV4+kY2Zjt79sVej4qxTzt/hGsX6Z&#xA;5fW+P7r0K+rwr3/ZpX+b6M1faP5fbxPq8ubjZ+D+LmmHlL/Dv6NP6Ep6PL99Wvqc6ft8t/l28Mv0&#xA;Pg8H7rl9rZh4a9Kd5mtrsVY55z/wv9Vi/TdeW/1b06+r25cadvGu2a/tDwOEeL8O9oz8Fep3kz/C&#xA;/wBVl/QleVV+s+pX1e/HlXt16bY9n+Bwnwvj3rg4K9LI82De7FXYq7FXYq7FXYq7FXYq7FXYq7FX&#xA;YqwfUP8ABn6VvPU+u/V/rkf6V9H1/wBHfW/g4+vx/d/yc6fD/PirOMVdirsVdirsVdirF/M36C/S&#xA;8PqfX/0x9Xan6M9b1fqvPf1PT+Hjz6V3r9nFU60L9Ffoay/RNP0b6KfVONf7um1eXxV8eW9eu+Ko&#xA;7FXYq7FX/9k=</xmpGImg:image>
               </rdf:li>
            </rdf:Alt>
         </xmp:Thumbnails>
      </rdf:Description>
      <rdf:Description rdf:about=""
            xmlns:xmpMM="../ns.adobe.com/xap/1.0/mm/default.htm"
            xmlns:stRef="../ns.adobe.com/xap/1.0/sType/ResourceRef#"
            xmlns:stEvt="../ns.adobe.com/xap/1.0/sType/ResourceEvent#">
         <xmpMM:InstanceID>xmp.iid:1174C583BB41E611948CEDE3318218BA</xmpMM:InstanceID>
         <xmpMM:DocumentID>xmp.did:1174C583BB41E611948CEDE3318218BA</xmpMM:DocumentID>
         <xmpMM:OriginalDocumentID>uuid:5D20892493BFDB11914A8590D31508C8</xmpMM:OriginalDocumentID>
         <xmpMM:RenditionClass>proof:pdf</xmpMM:RenditionClass>
         <xmpMM:DerivedFrom rdf:parseType="Resource">
            <stRef:instanceID>xmp.iid:2af6a1d4-0541-1a47-ae5a-2fb086a50b72</stRef:instanceID>
            <stRef:documentID>xmp.did:2af6a1d4-0541-1a47-ae5a-2fb086a50b72</stRef:documentID>
            <stRef:originalDocumentID>uuid:5D20892493BFDB11914A8590D31508C8</stRef:originalDocumentID>
            <stRef:renditionClass>proof:pdf</stRef:renditionClass>
         </xmpMM:DerivedFrom>
         <xmpMM:History>
            <rdf:Seq>
               <rdf:li rdf:parseType="Resource">
                  <stEvt:action>saved</stEvt:action>
                  <stEvt:instanceID>xmp.iid:B0318B8CD263E311AC15CEB932328228</stEvt:instanceID>
                  <stEvt:when>2013-12-13T15:42:50+07:00</stEvt:when>
                  <stEvt:softwareAgent>Adobe Illustrator CS6 (Windows)</stEvt:softwareAgent>
                  <stEvt:changed>default.htm</stEvt:changed>
               </rdf:li>
               <rdf:li rdf:parseType="Resource">
                  <stEvt:action>saved</stEvt:action>
                  <stEvt:instanceID>xmp.iid:B3318B8CD263E311AC15CEB932328228</stEvt:instanceID>
                  <stEvt:when>2013-12-13T16:34:06+07:00</stEvt:when>
                  <stEvt:softwareAgent>Adobe Illustrator CS6 (Windows)</stEvt:softwareAgent>
                  <stEvt:changed>default.htm</stEvt:changed>
               </rdf:li>
               <rdf:li rdf:parseType="Resource">
                  <stEvt:action>converted</stEvt:action>
                  <stEvt:parameters>from application/postscript to application/vnd.adobe.illustrator</stEvt:parameters>
               </rdf:li>
               <rdf:li rdf:parseType="Resource">
                  <stEvt:action>saved</stEvt:action>
                  <stEvt:instanceID>xmp.iid:2af6a1d4-0541-1a47-ae5a-2fb086a50b72</stEvt:instanceID>
                  <stEvt:when>2016-07-04T14:38:10+07:00</stEvt:when>
                  <stEvt:softwareAgent>Adobe Illustrator CC 2014 (Windows)</stEvt:softwareAgent>
                  <stEvt:changed>default.htm</stEvt:changed>
               </rdf:li>
               <rdf:li rdf:parseType="Resource">
                  <stEvt:action>saved</stEvt:action>
                  <stEvt:instanceID>xmp.iid:1174C583BB41E611948CEDE3318218BA</stEvt:instanceID>
                  <stEvt:when>2016-07-04T14:47:41+07:00</stEvt:when>
                  <stEvt:softwareAgent>Adobe Illustrator CS6 (Windows)</stEvt:softwareAgent>
                  <stEvt:changed>default.htm</stEvt:changed>
               </rdf:li>
            </rdf:Seq>
         </xmpMM:History>
      </rdf:Description>
      <rdf:Description rdf:about=""
            xmlns:illustrator="../ns.adobe.com/illustrator/1.0/default.htm">
         <illustrator:StartupProfile>Print</illustrator:StartupProfile>
      </rdf:Description>
      <rdf:Description rdf:about=""
            xmlns:xmpTPg="../ns.adobe.com/xap/1.0/t/pg/default.htm"
            xmlns:stDim="../ns.adobe.com/xap/1.0/sType/Dimensions#"
            xmlns:xmpG="../ns.adobe.com/xap/1.0/g/default.htm">
         <xmpTPg:HasVisibleOverprint>False</xmpTPg:HasVisibleOverprint>
         <xmpTPg:HasVisibleTransparency>False</xmpTPg:HasVisibleTransparency>
         <xmpTPg:NPages>1</xmpTPg:NPages>
         <xmpTPg:MaxPageSize rdf:parseType="Resource">
            <stDim:w>194.500000</stDim:w>
            <stDim:h>65.500000</stDim:h>
            <stDim:unit>Pixels</stDim:unit>
         </xmpTPg:MaxPageSize>
         <xmpTPg:PlateNames>
            <rdf:Seq>
               <rdf:li>Cyan</rdf:li>
               <rdf:li>Magenta</rdf:li>
               <rdf:li>Yellow</rdf:li>
               <rdf:li>Black</rdf:li>
            </rdf:Seq>
         </xmpTPg:PlateNames>
         <xmpTPg:SwatchGroups>
            <rdf:Seq>
               <rdf:li rdf:parseType="Resource">
                  <xmpG:groupName>Default Swatch Group</xmpG:groupName>
                  <xmpG:groupType>0</xmpG:groupType>
               </rdf:li>
            </rdf:Seq>
         </xmpTPg:SwatchGroups>
      </rdf:Description>
      <rdf:Description rdf:about=""
            xmlns:pdf="../ns.adobe.com/pdf/1.3/default.htm">
         <pdf:Producer>Adobe PDF library 10.01</pdf:Producer>
      </rdf:Description>
   </rdf:RDF>
</x:xmpmeta>
                                                                                                    
                                                                                                    
                                                                                                    
                                                                                                    
                                                                                                    
                                                                                                    
                                                                                                    
                                                                                                    
                                                                                                    
                                                                                                    
                                                                                                    
                                                                                                    
                                                                                                    
                                                                                                    
                                                                                                    
                                                                                                    
                                                                                                    
                                                                                                    
                                                                                                    
                                                                                                    
                           
<?xpacket end="w"?>
	</metadata>
<path fill="#18A4DD" d="M96.761,24.024L101.2,39.37l4.059-14.205c0.381-1.521,0.761-2.536,1.015-3.043s0.634-1.015,1.142-1.522
	c0.634-0.507,1.396-0.761,2.409-0.761c1.015,0,1.776,0.254,2.41,0.761s1.015,1.015,1.269,1.648c0.254,0.634,0.507,1.522,1.015,3.044
	l4.059,14.205l4.565-15.346c0.254-1.142,0.508-1.903,0.761-2.41c0.127-0.507,0.508-0.888,0.888-1.268
	c0.381-0.38,1.015-0.507,1.903-0.507c0.761,0,1.521,0.253,2.155,0.888c0.635,0.507,0.888,1.269,0.888,2.029
	c0,0.761-0.253,1.776-0.761,3.171l-5.58,16.488c-0.508,1.395-0.888,2.41-1.142,3.044s-0.634,1.142-1.269,1.648
	c-0.634,0.508-1.395,0.761-2.409,0.761s-1.902-0.253-2.41-0.761c-0.634-0.507-1.015-1.142-1.269-1.902
	c-0.253-0.761-0.634-1.775-0.888-2.917l-4.186-13.697l-3.805,13.316c-0.507,1.902-1.015,3.298-1.648,4.186
	c-0.635,0.888-1.649,1.396-3.044,1.396c-0.761,0-1.396-0.127-1.902-0.381c-0.508-0.254-1.015-0.761-1.269-1.268
	c-0.381-0.508-0.634-1.142-0.888-1.903c-0.254-0.761-0.508-1.395-0.634-1.775l-5.581-16.488c-0.507-1.522-0.888-2.664-0.888-3.17
	c0-0.761,0.253-1.396,0.888-2.029c0.634-0.634,1.269-0.888,2.156-0.888c1.142,0,1.902,0.381,2.283,1.015
	C95.874,21.36,96.254,22.502,96.761,24.024z"/>
<path fill="#18A4DD" d="M150.664,35.438H137.22c0,1.522,0.381,2.917,0.888,4.186c0.635,1.142,1.396,2.029,2.41,2.663
	s2.156,0.888,3.297,0.888c0.762,0,1.522-0.127,2.283-0.254c0.635-0.253,1.396-0.507,2.029-0.888c0.635-0.38,1.269-0.888,1.775-1.268
	c0.508-0.508,1.269-1.142,2.029-1.902c0.381-0.254,0.888-0.508,1.522-0.508c0.761,0,1.269,0.254,1.648,0.634
	c0.381,0.381,0.635,0.889,0.635,1.649c0,0.634-0.254,1.395-0.762,2.156c-0.507,0.888-1.269,1.648-2.156,2.409
	c-1.014,0.762-2.155,1.396-3.678,1.902c-1.521,0.508-3.171,0.761-5.073,0.761c-4.438,0-7.863-1.268-10.273-3.805
	c-2.409-2.536-3.678-5.961-3.678-10.272c0-2.029,0.254-3.932,0.888-5.581c0.635-1.775,1.522-3.17,2.664-4.439
	c1.141-1.268,2.536-2.156,4.312-2.79c1.649-0.634,3.552-1.015,5.581-1.015c2.663,0,4.946,0.507,6.849,1.649
	c1.902,1.141,3.297,2.537,4.313,4.439c1.015,1.775,1.395,3.678,1.395,5.454c0,1.775-0.507,2.79-1.521,3.298
	C153.834,35.185,152.439,35.438,150.664,35.438z M137.22,31.507h12.43c-0.127-2.283-0.762-4.059-1.902-5.327
	c-1.142-1.141-2.537-1.775-4.313-1.775c-1.648,0-3.171,0.634-4.186,1.775C138.107,27.448,137.474,29.224,137.22,31.507z"/>
<path fill="#18A4DD" d="M165.122,13.497v10.527c1.269-1.395,2.663-2.41,3.932-3.044c1.396-0.761,3.044-1.015,4.946-1.015
	c2.283,0,4.313,0.507,5.961,1.649c1.776,1.141,3.044,2.663,3.933,4.692c0.888,2.029,1.395,4.439,1.395,7.356
	c0,2.029-0.254,3.932-0.761,5.707c-0.508,1.775-1.269,3.298-2.283,4.565c-1.015,1.269-2.283,2.283-3.678,2.918
	c-1.396,0.634-3.044,1.015-4.693,1.015c-1.014,0-2.029-0.127-2.917-0.381s-1.775-0.634-2.409-1.015
	c-0.635-0.381-1.269-0.888-1.649-1.269c-0.507-0.38-1.014-1.142-1.775-1.902v0.634c0,1.269-0.253,2.283-0.888,2.918
	c-0.634,0.634-1.396,1.015-2.409,1.015c-1.015,0-1.776-0.381-2.283-1.015c-0.635-0.635-0.888-1.649-0.888-2.918V13.75
	c0-1.395,0.253-2.41,0.888-3.17c0.507-0.761,1.395-1.015,2.409-1.015s1.902,0.38,2.41,1.015
	C164.869,11.214,165.122,12.229,165.122,13.497z M165.503,33.916c0,2.791,0.634,4.82,1.902,6.342
	c1.269,1.522,2.917,2.156,4.946,2.156c1.775,0,3.171-0.761,4.439-2.283c1.268-1.521,1.902-3.678,1.902-6.468
	c0-1.775-0.254-3.425-0.762-4.693c-0.507-1.269-1.268-2.283-2.155-3.044c-1.015-0.761-2.029-1.015-3.298-1.015
	s-2.41,0.38-3.551,1.015c-1.016,0.761-1.776,1.775-2.41,3.044C165.757,30.365,165.503,32.014,165.503,33.916z"/>
<path fill="#18A4DD" d="M57.317,16.541c-1.015,0-1.776-0.254-2.41-0.888c-0.634-0.634-1.015-1.395-1.015-2.537
	c0-1.014,0.381-1.775,1.015-2.41c0.634-0.634,1.522-0.888,2.41-0.888c0.888,0,1.648,0.254,2.41,0.888
	c0.634,0.507,1.015,1.396,1.015,2.537c0,1.015-0.38,1.903-1.015,2.537C59.093,16.287,58.332,16.541,57.317,16.541z M60.742,23.644
	v19.785c0,1.396-0.38,2.41-1.015,3.171s-1.522,1.015-2.537,1.015s-1.776-0.381-2.41-1.142c-0.634-0.761-0.888-1.775-0.888-3.044
	V23.897c0-1.395,0.254-2.41,0.888-3.044c0.634-0.634,1.395-1.015,2.41-1.015s1.775,0.38,2.537,1.015
	C60.488,21.487,60.742,22.502,60.742,23.644z"/>
<path fill="#18A4DD" d="M85.093,27.448L72.029,42.16H85.98c1.142,0,2.029,0.254,2.537,0.761c0.634,0.508,0.888,1.269,0.888,2.03
	c0,0.761-0.254,1.395-0.888,1.902c-0.507,0.507-1.395,0.761-2.537,0.761H66.703c-1.395,0-2.41-0.254-3.044-0.888
	c-0.634-0.635-1.015-1.396-1.015-2.41c0-0.634,0.253-1.269,0.761-1.902s1.396-1.775,2.917-3.425
	c1.521-1.775,3.044-3.297,4.312-4.692c1.268-1.395,2.537-2.79,3.551-3.932c1.142-1.268,2.029-2.283,2.79-3.171
	c0.761-0.888,1.269-1.648,1.776-2.156H67.971c-1.522,0-2.537-0.127-3.297-0.38c-0.761-0.254-1.142-1.015-1.142-2.029
	c0-0.761,0.254-1.522,0.888-1.903c0.507-0.507,1.395-0.761,2.41-0.761H83.19c1.522,0,2.663,0.253,3.551,0.634
	c0.761,0.507,1.268,1.268,1.268,2.41c0,0.38-0.126,0.761-0.253,1.142c-0.127,0.38-0.38,0.761-0.507,1.014
	c-0.254,0.254-0.507,0.634-0.761,1.015C85.98,26.561,85.6,26.941,85.093,27.448z"/>
<g>
	<g>
		<path fill="#606161" d="M81.922,51.165h1.776c0.888,0,1.395,0.127,1.775,0.381s0.507,0.634,0.507,1.142
			c0,0.38-0.127,0.634-0.253,0.888c-0.254,0.254-0.507,0.381-0.888,0.507l0,0c0.888,0.127,1.395,0.635,1.395,1.522
			c0,0.507-0.127,1.015-0.507,1.269c-0.38,0.253-0.888,0.507-1.522,0.507h-2.283V51.165z M82.683,53.829h1.142
			c0.507,0,0.888-0.127,1.141-0.254c0.254-0.127,0.381-0.381,0.381-0.761c0-0.381-0.127-0.635-0.381-0.762
			c-0.253-0.126-0.634-0.253-1.141-0.253H82.81v2.029H82.683z M82.683,54.463v2.283h1.269c0.507,0,0.888-0.127,1.141-0.254
			c0.254-0.254,0.38-0.507,0.38-0.888s-0.126-0.634-0.38-0.888c-0.253-0.127-0.634-0.254-1.141-0.254H82.683L82.683,54.463z"/>
		<path fill="#606161" d="M90.927,57.38L90.8,56.746l0,0c-0.254,0.253-0.507,0.507-0.634,0.634
			c-0.253,0.127-0.507,0.127-0.888,0.127c-0.507,0-0.888-0.127-1.142-0.381c-0.253-0.253-0.38-0.634-0.38-1.015
			c0-0.888,0.761-1.395,2.283-1.521H90.8v-0.254c0-0.38-0.127-0.634-0.254-0.761s-0.38-0.254-0.761-0.254s-0.888,0.127-1.268,0.381
			l-0.254-0.635c0.253-0.126,0.507-0.253,0.761-0.253c0.254-0.127,0.507-0.127,0.761-0.127c0.507,0,1.015,0.127,1.268,0.38
			c0.254,0.254,0.381,0.635,0.381,1.142v3.171H90.927L90.927,57.38z M89.405,56.873c0.38,0,0.761-0.127,1.014-0.381
			c0.254-0.254,0.381-0.634,0.381-1.015v-0.38h-0.761c-0.507,0-1.014,0.126-1.268,0.253c-0.253,0.127-0.38,0.381-0.38,0.761
			c0,0.254,0.127,0.508,0.253,0.635C88.898,56.746,89.151,56.873,89.405,56.873z M89.151,51.927c0.127-0.127,0.254-0.381,0.38-0.635
			c0.127-0.254,0.254-0.507,0.381-0.634H90.8v0.127c-0.127,0.127-0.254,0.38-0.507,0.634c-0.254,0.254-0.507,0.508-0.634,0.634
			L89.151,51.927L89.151,51.927z"/>
		<path fill="#606161" d="M96.761,57.38v-3.044c0-0.38-0.126-0.634-0.253-0.888c-0.127-0.127-0.381-0.254-0.761-0.254
			c-0.507,0-0.888,0.127-1.015,0.381c-0.254,0.254-0.38,0.761-0.38,1.269v2.409H93.59v-4.692h0.634l0.127,0.634l0,0
			c0.126-0.253,0.38-0.38,0.634-0.507c0.254-0.127,0.507-0.127,0.888-0.127c0.507,0,1.014,0.127,1.268,0.381
			c0.254,0.253,0.381,0.761,0.381,1.268v3.044h-0.762V57.38z"/>
		<path fill="#606161" d="M105.766,57.38v-3.044c0-0.38-0.126-0.634-0.253-0.888c-0.127-0.127-0.381-0.254-0.761-0.254
			c-0.508,0-0.889,0.127-1.016,0.381c-0.253,0.254-0.38,0.761-0.38,1.269v2.409h-0.761v-6.595h0.761v2.029c0,0.254,0,0.38,0,0.634
			l0,0c0.127-0.254,0.38-0.38,0.634-0.507s0.508-0.254,0.888-0.254c0.508,0,1.015,0.127,1.269,0.381
			c0.254,0.253,0.381,0.761,0.381,1.268v3.044h-0.762V57.38z"/>
		<path fill="#606161" d="M111.347,57.38l-0.127-0.634l0,0c-0.254,0.253-0.507,0.507-0.634,0.634
			c-0.254,0.127-0.508,0.127-0.888,0.127c-0.508,0-0.762-0.127-1.142-0.381c-0.254-0.253-0.381-0.634-0.381-1.015
			c0-0.888,0.761-1.395,2.283-1.521h0.761v-0.254c0-0.38-0.127-0.634-0.254-0.761s-0.38-0.254-0.761-0.254s-0.888,0.127-1.269,0.381
			l-0.253-0.508c0.253-0.127,0.507-0.253,0.761-0.253c0.254-0.127,0.507-0.127,0.761-0.127c0.508,0,1.015,0.127,1.269,0.38
			c0.253,0.254,0.38,0.635,0.38,1.142v3.171h-0.507V57.38z M109.824,56.873c0.381,0,0.762-0.127,1.015-0.381
			c0.254-0.254,0.381-0.634,0.381-1.015v-0.38h-0.761c-0.508,0-1.015,0.126-1.269,0.253s-0.38,0.381-0.38,0.761
			c0,0.254,0.126,0.508,0.253,0.635C109.317,56.746,109.571,56.873,109.824,56.873z M110.586,52.053h-0.508
			c-0.127-0.126-0.38-0.38-0.634-0.634s-0.381-0.507-0.508-0.634v-0.127h0.888c0.127,0.254,0.254,0.38,0.381,0.634
			C110.332,51.673,110.459,51.8,110.586,52.053L110.586,52.053z"/>
		<path fill="#606161" d="M117.181,57.38v-3.044c0-0.38-0.127-0.634-0.254-0.888c-0.127-0.127-0.38-0.254-0.761-0.254
			c-0.507,0-0.888,0.127-1.015,0.381c-0.254,0.254-0.38,0.761-0.38,1.269v2.409h-0.762v-4.692h0.635l0.127,0.634l0,0
			c0.126-0.253,0.38-0.38,0.634-0.507s0.507-0.127,0.888-0.127c0.507,0,1.015,0.127,1.269,0.381c0.253,0.253,0.38,0.761,0.38,1.268
			v3.044h-0.761V57.38z"/>
		<path fill="#606161" d="M123.776,52.688v0.507l-0.889,0.127c0.127,0.127,0.127,0.254,0.254,0.381c0,0.127,0.127,0.38,0.127,0.507
			c0,0.508-0.127,0.762-0.507,1.142c-0.254,0.254-0.762,0.381-1.269,0.381c-0.127,0-0.254,0-0.381,0
			c-0.254,0.127-0.507,0.38-0.507,0.634c0,0.127,0,0.254,0.126,0.254c0.127,0,0.254,0.127,0.508,0.127h0.888
			c0.508,0,0.888,0.127,1.142,0.38c0.254,0.254,0.381,0.508,0.381,0.888c0,0.508-0.254,0.889-0.635,1.142
			c-0.38,0.254-1.015,0.381-1.775,0.381c-0.634,0-1.142-0.127-1.396-0.381c-0.38-0.253-0.507-0.507-0.507-1.015
			c0-0.253,0.127-0.507,0.254-0.761s0.38-0.381,0.761-0.381c-0.127,0-0.254-0.126-0.254-0.253c-0.127-0.127-0.127-0.254-0.127-0.381
			s0-0.38,0.127-0.507s0.254-0.254,0.381-0.381c-0.254-0.127-0.381-0.254-0.635-0.507c-0.126-0.254-0.253-0.508-0.253-0.762
			c0-0.507,0.127-0.888,0.507-1.142c0.254-0.253,0.761-0.38,1.269-0.38c0.254,0,0.507,0,0.634,0.127h1.776V52.688z M120.098,58.141
			c0,0.254,0.127,0.381,0.381,0.635c0.253,0.127,0.507,0.254,0.888,0.254c0.634,0,1.015-0.127,1.269-0.254
			c0.253-0.127,0.38-0.381,0.38-0.762c0-0.253-0.127-0.38-0.253-0.507c0-0.254-0.381-0.254-0.762-0.254h-0.888
			c-0.381,0-0.507,0.127-0.761,0.254C120.225,57.634,120.098,57.888,120.098,58.141z M120.479,54.209
			c0,0.381,0.127,0.635,0.253,0.762c0.127,0.127,0.381,0.253,0.762,0.253c0.634,0,1.015-0.38,1.015-1.015
			c0-0.761-0.381-1.015-1.015-1.015c-0.381,0-0.635,0.127-0.762,0.254C120.605,53.575,120.479,53.829,120.479,54.209z"/>
		<path fill="#606161" d="M131.513,56.746L131.513,56.746c-0.381,0.507-0.888,0.761-1.522,0.761c-0.634,0-1.141-0.254-1.395-0.634
			c-0.381-0.381-0.508-1.015-0.508-1.775c0-0.762,0.127-1.396,0.508-1.776c0.38-0.38,0.761-0.634,1.395-0.634
			c0.635,0,1.142,0.254,1.396,0.634l0,0v-0.38v-0.381v-1.902h0.761v6.595h-0.634V56.746z M130.117,56.873
			c0.508,0,0.888-0.127,1.015-0.381c0.254-0.254,0.381-0.634,0.381-1.269v-0.126c0-0.635-0.127-1.142-0.381-1.396
			s-0.507-0.381-1.015-0.381c-0.38,0-0.761,0.127-0.888,0.508c-0.254,0.38-0.38,0.761-0.38,1.395c0,0.635,0.126,1.015,0.38,1.396
			C129.356,56.746,129.737,56.873,130.117,56.873z"/>
		<path fill="#606161" d="M136.332,57.38c-0.634,0-1.269-0.254-1.648-0.634c-0.381-0.381-0.635-1.015-0.635-1.775
			c0-0.762,0.127-1.396,0.508-1.776c0.38-0.38,0.888-0.634,1.521-0.634c0.635,0,1.015,0.254,1.396,0.634
			c0.38,0.381,0.507,0.888,0.507,1.522v0.507h-3.171c0,0.508,0.127,1.015,0.381,1.269s0.634,0.381,1.142,0.381
			s1.015-0.127,1.521-0.254v0.634c-0.253,0.127-0.507,0.127-0.761,0.254C136.84,57.38,136.586,57.38,136.332,57.38z M136.713,50.531
			c-0.127,0-0.254,0-0.254-0.127c-0.127,0-0.254-0.127-0.254-0.127c-0.127,0-0.127-0.127-0.254-0.127s-0.127-0.127-0.253-0.127
			c-0.127,0-0.254,0-0.254,0.127s-0.127,0.127-0.127,0.254h-0.381c0-0.254,0.127-0.507,0.254-0.634s0.381-0.254,0.508-0.254
			c0.126,0,0.253,0,0.253,0.127c0.127,0,0.254,0.127,0.254,0.127c0.127,0,0.127,0.127,0.254,0.127s0.127,0.126,0.254,0.126
			s0.253,0,0.253-0.126c0-0.127,0.127-0.127,0.127-0.254h0.381c0,0.254-0.127,0.507-0.254,0.634
			C137.093,50.531,136.84,50.531,136.713,50.531z M137.347,52.053h-0.381c-0.253-0.126-0.634-0.38-0.888-0.761
			c-0.254,0.254-0.634,0.508-0.888,0.761h-0.381v-0.126l0.254-0.254c0.381-0.381,0.508-0.635,0.635-0.888h0.761
			C136.586,51.165,136.966,51.546,137.347,52.053L137.347,52.053z M136.078,53.194c-0.38,0-0.634,0.127-0.888,0.381
			s-0.381,0.634-0.381,1.015h2.41c0-0.508-0.127-0.761-0.254-1.015C136.713,53.321,136.459,53.194,136.078,53.194z"/>
		<path fill="#606161" d="M145.971,56.746L145.971,56.746c-0.38,0.507-0.888,0.761-1.521,0.761c-0.635,0-1.142-0.254-1.396-0.634
			c-0.38-0.381-0.507-1.015-0.507-1.775c0-0.762,0.127-1.396,0.507-1.776c0.381-0.38,0.761-0.634,1.396-0.634
			c0.634,0,1.142,0.254,1.395,0.634l0,0v-0.38v-0.381v-1.902h0.762v6.595h-0.635V56.746z M144.576,56.873
			c0.507,0,0.888-0.127,1.015-0.381c0.253-0.254,0.38-0.634,0.38-1.269v-0.126c0-0.635-0.127-1.142-0.38-1.396
			c-0.254-0.254-0.508-0.381-1.015-0.381c-0.381,0-0.762,0.127-0.888,0.508c-0.254,0.38-0.381,0.761-0.381,1.395
			c0,0.635,0.127,1.015,0.381,1.396C143.814,56.746,144.195,56.873,144.576,56.873z"/>
		<path fill="#606161" d="M151.679,57.38l-0.127-0.634l0,0c-0.254,0.253-0.508,0.507-0.634,0.634
			c-0.254,0.127-0.508,0.127-0.889,0.127c-0.507,0-0.761-0.127-1.142-0.381c-0.253-0.253-0.38-0.634-0.38-1.015
			c0-0.888,0.761-1.395,2.283-1.521h0.761v-0.254c0-0.38-0.127-0.634-0.254-0.761s-0.38-0.254-0.761-0.254s-0.888,0.127-1.269,0.381
			l-0.254-0.508c0.254-0.127,0.508-0.253,0.761-0.253c0.254-0.127,0.508-0.127,0.762-0.127c0.507,0,1.015,0.127,1.269,0.38
			c0.253,0.254,0.38,0.635,0.38,1.142v3.171h-0.507V57.38z M150.029,56.873c0.381,0,0.762-0.127,1.015-0.381
			c0.254-0.254,0.381-0.634,0.381-1.015v-0.38h-0.761c-0.508,0-1.015,0.126-1.269,0.253s-0.381,0.381-0.381,0.761
			c0,0.254,0.127,0.508,0.254,0.635C149.522,56.746,149.775,56.873,150.029,56.873z M150.918,52.053h-0.508
			c-0.127-0.126-0.381-0.38-0.635-0.634c-0.253-0.254-0.38-0.507-0.507-0.634v-0.127h0.888c0.127,0.254,0.254,0.38,0.381,0.634
			C150.664,51.673,150.791,51.8,150.918,52.053L150.918,52.053z"/>
		<path fill="#606161" d="M157.513,57.38v-3.044c0-0.38-0.127-0.634-0.254-0.888c-0.127-0.127-0.38-0.254-0.761-0.254
			c-0.508,0-0.888,0.127-1.015,0.381c-0.254,0.254-0.381,0.761-0.381,1.269v2.409h-0.761v-4.692h0.634l0.127,0.634l0,0
			c0.127-0.253,0.381-0.38,0.635-0.507c0.253-0.127,0.507-0.127,0.888-0.127c0.507,0,1.015,0.127,1.268,0.381
			c0.254,0.253,0.381,0.761,0.381,1.268v3.044h-0.761V57.38z"/>
		<path fill="#606161" d="M164.107,52.688v0.507l-0.888,0.127c0.127,0.127,0.127,0.254,0.254,0.381c0,0.127,0.127,0.38,0.127,0.507
			c0,0.508-0.127,0.762-0.508,1.142c-0.254,0.254-0.761,0.381-1.268,0.381c-0.127,0-0.254,0-0.381,0
			c-0.254,0.127-0.508,0.38-0.508,0.634c0,0.127,0,0.254,0.127,0.254s0.254,0.127,0.508,0.127h0.888c0.507,0,0.888,0.127,1.142,0.38
			c0.253,0.254,0.38,0.508,0.38,0.888c0,0.508-0.253,0.889-0.634,1.142c-0.381,0.254-1.015,0.381-1.775,0.381
			c-0.635,0-1.142-0.127-1.396-0.381c-0.38-0.253-0.507-0.507-0.507-1.015c0-0.253,0.127-0.507,0.253-0.761
			c0.127-0.254,0.381-0.381,0.762-0.381c-0.127,0-0.254-0.126-0.254-0.253c-0.127-0.127-0.127-0.254-0.127-0.381s0-0.38,0.127-0.507
			s0.254-0.254,0.381-0.381c-0.254-0.127-0.381-0.254-0.635-0.507c-0.127-0.254-0.254-0.508-0.254-0.762
			c0-0.507,0.127-0.888,0.508-1.142c0.254-0.253,0.761-0.38,1.269-0.38c0.253,0,0.507,0,0.634,0.127h1.775V52.688z M160.43,58.141
			c0,0.254,0.127,0.381,0.381,0.635c0.253,0.127,0.507,0.254,0.888,0.254c0.634,0,1.015-0.127,1.268-0.254
			c0.254-0.127,0.381-0.381,0.381-0.762c0-0.253-0.127-0.38-0.254-0.507s-0.507-0.127-0.888-0.127h-0.888
			c-0.38,0-0.507,0.127-0.761,0.254C160.43,57.634,160.43,57.888,160.43,58.141z M160.811,54.209c0,0.381,0.126,0.635,0.253,0.762
			s0.381,0.253,0.761,0.253c0.635,0,1.015-0.38,1.015-1.015c0-0.761-0.38-1.015-1.015-1.015c-0.38,0-0.634,0.127-0.761,0.254
			C160.811,53.575,160.811,53.829,160.811,54.209z"/>
		<path fill="#606161" d="M171.844,57.38v-3.044c0-0.38-0.126-0.634-0.253-0.888c-0.127-0.127-0.381-0.254-0.761-0.254
			c-0.508,0-0.889,0.127-1.015,0.381c-0.254,0.254-0.381,0.761-0.381,1.269v2.409h-0.761v-6.595h0.761v2.029c0,0.254,0,0.38,0,0.634
			l0,0c0.127-0.254,0.381-0.38,0.634-0.507c0.254-0.127,0.508-0.254,0.888-0.254c0.508,0,1.015,0.127,1.269,0.381
			c0.254,0.253,0.381,0.761,0.381,1.268v3.044h-0.762V57.38z"/>
		<path fill="#606161" d="M178.693,54.971c0,0.761-0.254,1.395-0.635,1.775c-0.38,0.38-0.888,0.634-1.648,0.634
			c-0.381,0-0.761-0.127-1.142-0.254c-0.38-0.253-0.634-0.507-0.761-0.888c-0.127-0.38-0.254-0.761-0.254-1.268
			c0-0.762,0.127-1.396,0.508-1.776c0.38-0.38,0.888-0.634,1.521-0.634s1.142,0.254,1.521,0.634c0.127,0,0.254-0.127,0.381-0.253
			c0.127-0.127,0.127-0.254,0.127-0.381s0-0.381,0-0.634h0.761l0.127,0.126c-0.127,0.381-0.253,0.762-0.38,1.015
			c-0.127,0.254-0.381,0.381-0.635,0.508C178.566,54.082,178.693,54.463,178.693,54.971z M175.142,54.971
			c0,0.634,0.127,1.015,0.381,1.395c0.254,0.254,0.634,0.508,1.015,0.508c0.507,0,0.888-0.127,1.142-0.508
			c0.253-0.38,0.38-0.761,0.38-1.395c0-0.635-0.127-1.015-0.38-1.396c-0.254-0.254-0.635-0.508-1.142-0.508
			c-0.508,0-0.888,0.127-1.015,0.508C175.269,53.956,175.142,54.463,175.142,54.971z"/>
		<path fill="#606161" d="M183.767,57.38v-3.044c0-0.38-0.127-0.634-0.254-0.888c-0.127-0.127-0.381-0.254-0.761-0.254
			c-0.508,0-0.889,0.127-1.015,0.381c-0.254,0.254-0.381,0.761-0.381,1.269v2.409h-0.761v-4.692h0.634l0.127,0.634l0,0
			c0.127-0.253,0.381-0.38,0.634-0.507c0.254-0.127,0.508-0.127,0.889-0.127c0.507,0,1.015,0.127,1.268,0.381
			c0.254,0.253,0.381,0.761,0.381,1.268v3.044h-0.761V57.38z"/>
	</g>
</g>
<path fill="#7FC142" d="M45.269,7.663l-33.737,3.043c-3.678,0.381-4.819,2.156-4.819,4.82v34.497c0,2.664,2.156,4.947,4.946,4.947
	h0.38c0.507-2.537,2.79-4.439,5.454-4.439s4.946,1.902,5.454,4.439h11.922c0.507-2.537,2.791-4.439,5.454-4.439
	c2.663,0,4.946,1.902,5.454,4.313c2.537-0.254,4.566-2.283,4.566-4.82V12.609C50.215,9.819,48.059,7.663,45.269,7.663z
	 M44.761,37.214c-0.254,1.775-0.761,3.425-1.522,4.819c-0.761,1.396-1.776,2.664-3.044,3.552c-1.269,0.888-2.791,1.521-4.439,1.902
	c-1.015,0.127-2.029,0.254-3.044,0.127s-1.776-0.254-2.537-0.508c-0.761-0.253-1.395-0.634-1.902-1.015
	c-0.507-0.38-1.269-0.888-2.156-1.648l0.127,0.634c0.253,1.269,0.126,2.283-0.381,3.044c-0.507,0.762-1.268,1.269-2.156,1.396
	c-1.015,0.127-1.776,0-2.41-0.508c-0.634-0.507-1.141-1.521-1.395-2.79l-5.2-29.424c-0.254-1.395-0.127-2.41,0.253-3.297
	c0.38-0.761,1.142-1.269,2.156-1.522c1.015-0.127,1.902,0,2.537,0.634c0.761,0.634,1.141,1.521,1.395,2.79l1.775,10.273
	c1.015-1.522,2.156-2.791,3.298-3.678s2.79-1.522,4.692-1.902c2.283-0.381,4.313-0.254,6.215,0.507
	c1.902,0.761,3.424,2.029,4.819,3.932c1.269,1.902,2.156,4.186,2.664,6.976C44.888,33.536,45.015,35.438,44.761,37.214z"/>
<path fill="#7FC142" d="M36.264,28.463c-0.761-1.142-1.649-2.029-2.664-2.537s-2.283-0.634-3.424-0.507
	c-1.269,0.254-2.41,0.761-3.298,1.649c-0.888,0.888-1.522,2.029-1.775,3.424c-0.38,1.396-0.38,3.044,0,4.946
	c0.507,2.663,1.522,4.692,2.917,5.834c1.522,1.269,3.171,1.648,5.2,1.269c1.648-0.254,3.044-1.269,4.059-3.044
	c1.015-1.648,1.141-3.932,0.761-6.722C37.532,31.126,37.024,29.604,36.264,28.463z"/>
<circle fill="#7FC142" cx="40.195" cy="56.239" r="3.424"/>
<circle fill="#7FC142" cx="17.366" cy="56.239" r="3.424"/>
</svg>
