<?xml version="1.0" encoding="utf-8"?>
<!-- Generator: Adobe Illustrator 16.0.0, SVG Export Plug-In . SVG Version: 6.00 Build 0)  -->
<!DOCTYPE svg PUBLIC "-//W3C//DTD SVG 1.1//EN" "http://www.w3.org/Graphics/SVG/1.1/DTD/svg11.dtd">
<svg version="1.1" id="Layer_1" xmlns="http://www.w3.org/2000/svg" xmlns:xlink="http://www.w3.org/1999/xlink" x="0px" y="0px"
	 width="202.5px" height="66.5px" viewBox="0 0 202.5 66.5" enable-background="new 0 0 202.5 66.5" xml:space="preserve">
<metadata><?xpacket begin="﻿" id="W5M0MpCehiHzreSzNTczkc9d"?>
<x:xmpmeta xmlns:x="adobe:ns:meta/" x:xmptk="Adobe XMP Core 5.3-c011 66.145661, 2012/02/06-14:56:27        ">
   <rdf:RDF xmlns:rdf="http://www.w3.org/1999/02/22-rdf-syntax-ns#">
      <rdf:Description rdf:about=""
            xmlns:xmp="../ns.adobe.com/xap/1.0/default.htm"
            xmlns:xmpGImg="../ns.adobe.com/xap/1.0/g/img/default.htm">
         <xmp:CreatorTool>Adobe Illustrator CS6 (Windows)</xmp:CreatorTool>
         <xmp:CreateDate>2016-07-04T14:47:10+07:00</xmp:CreateDate>
         <xmp:Thumbnails>
            <rdf:Alt>
               <rdf:li rdf:parseType="Resource">
                  <xmpGImg:width>256</xmpGImg:width>
                  <xmpGImg:height>76</xmpGImg:height>
                  <xmpGImg:format>JPEG</xmpGImg:format>
                  <xmpGImg:image>/9j/4AAQSkZJRgABAgEASABIAAD/7QAsUGhvdG9zaG9wIDMuMAA4QklNA+0AAAAAABAASAAAAAEA&#xA;AQBIAAAAAQAB/+4ADkFkb2JlAGTAAAAAAf/bAIQABgQEBAUEBgUFBgkGBQYJCwgGBggLDAoKCwoK&#xA;DBAMDAwMDAwQDA4PEA8ODBMTFBQTExwbGxscHx8fHx8fHx8fHwEHBwcNDA0YEBAYGhURFRofHx8f&#xA;Hx8fHx8fHx8fHx8fHx8fHx8fHx8fHx8fHx8fHx8fHx8fHx8fHx8fHx8fHx8f/8AAEQgATAEAAwER&#xA;AAIRAQMRAf/EAaIAAAAHAQEBAQEAAAAAAAAAAAQFAwIGAQAHCAkKCwEAAgIDAQEBAQEAAAAAAAAA&#xA;AQACAwQFBgcICQoLEAACAQMDAgQCBgcDBAIGAnMBAgMRBAAFIRIxQVEGE2EicYEUMpGhBxWxQiPB&#xA;UtHhMxZi8CRygvElQzRTkqKyY3PCNUQnk6OzNhdUZHTD0uIIJoMJChgZhJRFRqS0VtNVKBry4/PE&#xA;1OT0ZXWFlaW1xdXl9WZ2hpamtsbW5vY3R1dnd4eXp7fH1+f3OEhYaHiImKi4yNjo+Ck5SVlpeYmZ&#xA;qbnJ2en5KjpKWmp6ipqqusra6voRAAICAQIDBQUEBQYECAMDbQEAAhEDBCESMUEFURNhIgZxgZEy&#xA;obHwFMHR4SNCFVJicvEzJDRDghaSUyWiY7LCB3PSNeJEgxdUkwgJChgZJjZFGidkdFU38qOzwygp&#xA;0+PzhJSktMTU5PRldYWVpbXF1eX1RlZmdoaWprbG1ub2R1dnd4eXp7fH1+f3OEhYaHiImKi4yNjo&#xA;+DlJWWl5iZmpucnZ6fkqOkpaanqKmqq6ytrq+v/aAAwDAQACEQMRAD8A9U4q7FXYq7FXYq7FXYq7&#xA;FXYq7FXYq7FXYq7FXYq7FXYq7FXYq7FXYq7FXYq7FXYq7FXYq7FXYq7FXYq7FXYq7FXYq7FXYq7F&#xA;XYq7FXYq7FXYq7FXYq7FXYq7FXYq7FXYq7FXYq7FXYq7FXYq7FXYq7FXYq7FXYq7FXYq7FXYq7FX&#xA;Yq7FXYq7FXYq7FXYq7FXYq7FXYq7FXYq7FXYq7FXYq7FXYq7FXYq7FXYq7FXYq7FXYq7FXYq7FXY&#xA;q7FXYq7FXYq7FXYq7FXYq7FXYq7FXYq7FXYq7FXYq7FXYq7FXYq7FXYq7FXYq7FXYq7FXYq7FXYq&#xA;7FXYq7FXYq7FXYq7FXYq7FXYq7FXYq7FXYq7FXYq7FXYq7FXYq7FXYq7FXYq7FXYq7FXYq7FXYq7&#xA;FXYq7FXYq7FXYq7FXYq7FXYq7FXYq7FXYq7FXYq7FXYq7FXYq7FXYq7FXYq7FXYq7FXYq7FXYq7F&#xA;XYq7FXYq7FXYq7FXYq7FXYq7FXYq7FXYq7FXYq7FXYq7FXYq7FXYq7FXYq7FXYq7FXYq7FXYq7FX&#xA;Yq7FXYq7FXYq7FXYq7FXYq7FXYq7FXYq7FXYq7FXYq7FXYq7FXYq7FXYq7FXYq7FXYq7FXYq7FXY&#xA;q7FXYq7FXYq7FXYq7FXYq7FXYq7FXYq7FXYq7FXYq7FXYq7FXYq7FXYq7FXYq7FXYq7FXYq7FXYq&#xA;7FXYq7FXYq7FXYq7FXYq7FXYq7FXYq7FXYq7FXYq7FXYq7FXYq7FXYq7FXYq7FXYq7FXYq7FXYq7&#xA;FXYq7FXYq7FXYq7FXYq7FX//2Q==</xmpGImg:image>
               </rdf:li>
            </rdf:Alt>
         </xmp:Thumbnails>
         <xmp:MetadataDate>2016-07-04T14:47:10+07:00</xmp:MetadataDate>
         <xmp:ModifyDate>2016-07-04T14:47:10+07:00</xmp:ModifyDate>
      </rdf:Description>
      <rdf:Description rdf:about=""
            xmlns:xmpTPg="../ns.adobe.com/xap/1.0/t/pg/default.htm"
            xmlns:stDim="../ns.adobe.com/xap/1.0/sType/Dimensions#"
            xmlns:xmpG="../ns.adobe.com/xap/1.0/g/default.htm">
         <xmpTPg:MaxPageSize rdf:parseType="Resource">
            <stDim:w>202.500000</stDim:w>
            <stDim:h>66.500000</stDim:h>
            <stDim:unit>Pixels</stDim:unit>
         </xmpTPg:MaxPageSize>
         <xmpTPg:NPages>1</xmpTPg:NPages>
         <xmpTPg:HasVisibleTransparency>False</xmpTPg:HasVisibleTransparency>
         <xmpTPg:HasVisibleOverprint>False</xmpTPg:HasVisibleOverprint>
         <xmpTPg:SwatchGroups>
            <rdf:Seq>
               <rdf:li rdf:parseType="Resource">
                  <xmpG:groupName>Default Swatch Group</xmpG:groupName>
                  <xmpG:groupType>0</xmpG:groupType>
               </rdf:li>
            </rdf:Seq>
         </xmpTPg:SwatchGroups>
      </rdf:Description>
      <rdf:Description rdf:about=""
            xmlns:dc="../purl.org/dc/elements/1.1/default.htm">
         <dc:format>image/svg+xml</dc:format>
      </rdf:Description>
      <rdf:Description rdf:about=""
            xmlns:xmpMM="../ns.adobe.com/xap/1.0/mm/default.htm"
            xmlns:stEvt="../ns.adobe.com/xap/1.0/sType/ResourceEvent#">
         <xmpMM:DerivedFrom rdf:parseType="Resource"/>
         <xmpMM:DocumentID>xmp.did:1074C583BB41E611948CEDE3318218BA</xmpMM:DocumentID>
         <xmpMM:InstanceID>xmp.iid:1074C583BB41E611948CEDE3318218BA</xmpMM:InstanceID>
         <xmpMM:OriginalDocumentID>xmp.did:1074C583BB41E611948CEDE3318218BA</xmpMM:OriginalDocumentID>
         <xmpMM:History>
            <rdf:Seq>
               <rdf:li rdf:parseType="Resource">
                  <stEvt:action>saved</stEvt:action>
                  <stEvt:instanceID>xmp.iid:1074C583BB41E611948CEDE3318218BA</stEvt:instanceID>
                  <stEvt:when>2016-07-04T14:47:10+07:00</stEvt:when>
                  <stEvt:softwareAgent>Adobe Illustrator CS6 (Windows)</stEvt:softwareAgent>
                  <stEvt:changed>default.htm</stEvt:changed>
               </rdf:li>
            </rdf:Seq>
         </xmpMM:History>
      </rdf:Description>
   </rdf:RDF>
</x:xmpmeta>
                                                                                                    
                                                                                                    
                                                                                                    
                                                                                                    
                                                                                                    
                                                                                                    
                                                                                                    
                                                                                                    
                                                                                                    
                                                                                                    
                                                                                                    
                                                                                                    
                                                                                                    
                                                                                                    
                                                                                                    
                                                                                                    
                                                                                                    
                                                                                                    
                                                                                                    
                                                                                                    
                           
<?xpacket end="w"?>
	</metadata>
<g>
	<path fill="#FFFFFF" d="M99.972,24.297l4.598,15.41l4.091-14.3c0.412-1.49,0.792-2.505,1.015-3.107
		c0.189-0.507,0.603-1.109,1.204-1.585c0.603-0.507,1.396-0.697,2.41-0.697s1.808,0.285,2.41,0.697
		c0.602,0.507,1.015,1.015,1.204,1.585c0.19,0.603,0.603,1.585,1.015,3.012l4.091,14.3l4.598-15.41
		c0.285-1.109,0.602-1.902,0.697-2.41c0.19-0.507,0.507-0.888,0.888-1.3c0.381-0.413,1.109-0.603,1.902-0.603
		s1.49,0.286,2.188,0.888c0.604,0.603,0.888,1.205,0.888,1.998c0,0.698-0.284,1.808-0.792,3.203l-5.612,16.52
		c-0.508,1.395-0.888,2.41-1.109,3.012c-0.286,0.603-0.698,1.205-1.301,1.712s-1.395,0.698-2.409,0.698
		c-1.11,0-1.902-0.286-2.505-0.793s-1.015-1.205-1.3-1.903c-0.286-0.792-0.603-1.807-0.889-3.012L113.258,28.8l-3.806,13.412
		c-0.507,1.903-1.109,3.297-1.585,4.186c-0.603,1.015-1.585,1.395-3.107,1.395c-0.793,0-1.395-0.095-1.902-0.413
		c-0.507-0.317-1.015-0.697-1.301-1.299c-0.412-0.507-0.696-1.206-0.887-1.998c-0.285-0.792-0.508-1.3-0.603-1.807L94.36,26.073
		c-0.603-1.585-0.792-2.6-0.792-3.203c0-0.697,0.285-1.395,0.888-1.998s1.3-0.888,2.188-0.888c1.109,0,1.902,0.285,2.314,1.015
		C99.274,21.697,99.56,22.807,99.972,24.297z"/>
	<path fill="#FFFFFF" d="M153.97,35.712h-13.413c0,1.585,0.286,3.012,1.016,4.186c0.603,1.205,1.395,2.093,2.505,2.695
		c1.015,0.602,2.188,0.888,3.393,0.888c0.793,0,1.585-0.095,2.314-0.286c0.697-0.19,1.3-0.507,1.997-0.888
		c0.603-0.412,1.205-0.888,1.808-1.3c0.508-0.507,1.205-1.11,2.093-1.903c0.412-0.285,0.888-0.507,1.49-0.507
		c0.697,0,1.3,0.19,1.712,0.603c0.412,0.412,0.698,0.888,0.698,1.585c0,0.603-0.19,1.395-0.698,2.188
		c-0.507,0.792-1.204,1.585-2.188,2.41c-1.015,0.792-2.188,1.395-3.71,1.903c-1.521,0.507-3.202,0.792-5.199,0.792
		c-4.408,0-7.801-1.3-10.306-3.805s-3.71-5.897-3.71-10.209c0-1.998,0.286-3.9,0.889-5.612c0.602-1.712,1.49-3.298,2.695-4.502
		c1.204-1.3,2.6-2.188,4.312-2.886c1.712-0.697,3.615-1.015,5.612-1.015c2.695,0,5.01,0.603,6.912,1.712s3.393,2.6,4.313,4.407
		c1.015,1.808,1.395,3.71,1.395,5.517c0,1.712-0.507,2.885-1.49,3.393C157.267,35.395,155.776,35.712,153.97,35.712z
		 M140.462,31.907h12.493c-0.19-2.41-0.793-4.09-1.902-5.295c-1.11-1.205-2.601-1.808-4.407-1.808c-1.713,0-3.107,0.603-4.186,1.808
		C141.477,27.817,140.779,29.498,140.462,31.907z"/>
	<path fill="#FFFFFF" d="M168.491,13.802v10.495c1.3-1.395,2.601-2.41,3.995-3.107c1.396-0.698,3.013-1.11,5.01-1.11
		c2.315,0,4.313,0.507,5.993,1.586c1.712,1.109,3.107,2.695,3.995,4.692c1.015,2.093,1.395,4.502,1.395,7.292
		c0,2.093-0.285,3.996-0.792,5.708c-0.508,1.808-1.301,3.298-2.314,4.598c-1.015,1.3-2.188,2.314-3.71,3.012
		c-1.396,0.697-3.013,1.11-4.788,1.11c-1.109,0-2.093-0.095-3.012-0.413c-0.888-0.286-1.713-0.603-2.41-1.015
		c-0.698-0.412-1.205-0.792-1.712-1.3c-0.508-0.412-1.11-1.109-1.808-1.997v0.698c0,1.299-0.285,2.314-0.888,3.012
		c-0.603,0.698-1.396,1.015-2.41,1.015s-1.808-0.286-2.314-1.015c-0.603-0.697-0.888-1.712-0.888-3.012V14.056
		c0-1.396,0.285-2.505,0.793-3.203c0.602-0.698,1.395-1.11,2.409-1.11c1.11,0,1.902,0.286,2.505,1.015
		C168.27,11.488,168.491,12.502,168.491,13.802z M168.872,34.19c0,2.791,0.603,4.915,1.902,6.31c1.3,1.49,2.886,2.188,5.01,2.188
		c1.712,0,3.202-0.792,4.503-2.314c1.3-1.522,1.902-3.71,1.902-6.405c0-1.808-0.286-3.393-0.793-4.693
		c-0.508-1.3-1.3-2.314-2.188-3.107c-1.015-0.697-2.093-1.109-3.393-1.109c-1.301,0-2.505,0.412-3.488,1.109
		c-1.015,0.698-1.808,1.808-2.409,3.107C169.284,30.797,168.872,32.415,168.872,34.19z"/>
	<path fill="#FFFFFF" d="M60.75,16.91c-1.014,0-1.807-0.286-2.504-0.888c-0.698-0.603-1.015-1.396-1.015-2.505
		c0-1.015,0.412-1.808,1.11-2.41c0.697-0.603,1.49-1.015,2.409-1.015c0.92,0,1.712,0.285,2.41,0.888s1.015,1.395,1.015,2.505
		c0,1.109-0.286,1.902-1.015,2.505C62.367,16.592,61.543,16.91,60.75,16.91z M64.047,24.012v19.817c0,1.395-0.285,2.41-1.014,3.107
		c-0.698,0.698-1.49,1.11-2.505,1.11c-1.015,0-1.808-0.412-2.505-1.11c-0.602-0.698-1.014-1.807-1.014-3.107V24.234
		c0-1.395,0.285-2.41,1.014-3.107c0.603-0.697,1.49-1.015,2.505-1.015c1.015,0,1.902,0.286,2.505,1.015
		C63.667,21.792,64.047,22.712,64.047,24.012z"/>
	<path fill="#FFFFFF" d="M88.462,27.817L75.367,42.529H89.35c1.11,0,1.997,0.285,2.6,0.792c0.603,0.507,0.887,1.205,0.887,2.093
		c0,0.793-0.285,1.49-0.887,1.998c-0.603,0.508-1.396,0.792-2.6,0.792H70.04c-1.395,0-2.41-0.285-3.107-0.888
		c-0.697-0.603-1.015-1.395-1.015-2.505c0-0.603,0.19-1.205,0.698-1.902c0.507-0.603,1.49-1.807,3.012-3.393
		c1.585-1.808,3.012-3.393,4.313-4.788c1.3-1.395,2.504-2.79,3.615-3.995c1.109-1.205,1.997-2.314,2.79-3.202
		c0.697-0.888,1.3-1.585,1.807-2.188H71.245c-1.49,0-2.6-0.095-3.393-0.412c-0.793-0.285-1.11-1.015-1.11-2.093
		c0-0.793,0.285-1.49,0.888-1.998s1.395-0.698,2.41-0.698h16.52c1.49,0,2.695,0.19,3.488,0.698c0.792,0.412,1.205,1.3,1.205,2.41
		c0,0.412-0.095,0.793-0.19,1.205c-0.191,0.412-0.286,0.792-0.508,1.015c-0.19,0.285-0.507,0.603-0.792,1.015
		C89.35,26.802,88.969,27.31,88.462,27.817z"/>
	<g>
		<path fill="#FFFFFF" d="M85.26,51.502h1.807c0.793,0,1.396,0.095,1.808,0.412c0.412,0.19,0.602,0.603,0.602,1.205
			c0,0.412-0.095,0.697-0.285,0.888c-0.19,0.19-0.507,0.412-0.888,0.507l0,0c1.014,0.19,1.395,0.697,1.395,1.49
			c0,0.603-0.19,1.015-0.602,1.3c-0.413,0.285-0.888,0.507-1.585,0.507h-2.188L85.26,51.502L85.26,51.502z M85.862,54.198h1.205
			c0.507,0,0.888-0.096,1.11-0.19c0.19-0.19,0.286-0.412,0.286-0.792c0-0.381-0.096-0.603-0.413-0.793
			c-0.285-0.19-0.698-0.19-1.205-0.19h-1.11L85.862,54.198L85.862,54.198z M85.862,54.8v2.314h1.3c0.508,0,0.888-0.095,1.11-0.285
			c0.286-0.19,0.412-0.508,0.412-0.888c0-0.381-0.095-0.697-0.412-0.888c-0.285-0.19-0.698-0.285-1.205-0.285L85.862,54.8
			L85.862,54.8z"/>
		<path fill="#FFFFFF" d="M94.36,57.622l-0.095-0.698l0,0c-0.19,0.286-0.507,0.508-0.697,0.603c-0.19,0.096-0.508,0.19-0.888,0.19
			c-0.507,0-0.793-0.095-1.11-0.412c-0.285-0.19-0.412-0.603-0.412-1.015c0-0.888,0.793-1.395,2.314-1.49h0.793v-0.19
			c0-0.412-0.095-0.602-0.19-0.792c-0.285-0.19-0.603-0.19-0.888-0.19c-0.412,0-0.792,0.096-1.3,0.413l-0.19-0.507
			c0.19-0.095,0.507-0.19,0.793-0.286c0.285-0.095,0.603-0.095,0.792-0.095c0.603,0,1.015,0.095,1.205,0.412
			c0.286,0.191,0.413,0.603,0.413,1.205v3.203h-0.507L94.36,57.622L94.36,57.622z M92.774,57.114c0.413,0,0.793-0.095,1.015-0.412
			c0.285-0.19,0.412-0.603,0.412-1.015v-0.412h-0.729c-0.602,0-1.015,0.095-1.205,0.285c-0.286,0.19-0.412,0.412-0.412,0.698
			c0,0.285,0.095,0.507,0.19,0.602C92.267,57.114,92.457,57.114,92.774,57.114z M92.553,52.295c0.095-0.19,0.285-0.412,0.412-0.602
			c0.19-0.286,0.285-0.508,0.412-0.698h0.888v0.096c-0.095,0.19-0.285,0.412-0.603,0.697c-0.19,0.285-0.507,0.507-0.603,0.603
			L92.553,52.295L92.553,52.295z"/>
		<path fill="#FFFFFF" d="M100.066,57.622v-3.013c0-0.412-0.095-0.697-0.285-0.887c-0.19-0.19-0.411-0.286-0.792-0.286
			c-0.508,0-0.889,0.095-1.11,0.412c-0.19,0.285-0.285,0.698-0.285,1.3v2.504h-0.697v-4.692h0.603l0.095,0.603l0,0
			c0.095-0.19,0.412-0.413,0.603-0.507c0.285-0.095,0.603-0.19,0.888-0.19c0.603,0,1.015,0.095,1.301,0.413
			c0.285,0.285,0.412,0.697,0.412,1.299v3.108L100.066,57.622L100.066,57.622z"/>
		<path fill="#FFFFFF" d="M108.977,57.622v-3.013c0-0.412-0.095-0.697-0.285-0.887c-0.19-0.19-0.412-0.286-0.793-0.286
			c-0.507,0-0.888,0.095-1.109,0.412c-0.19,0.285-0.285,0.698-0.285,1.3v2.504h-0.697v-6.595h0.697v1.998c0,0.19,0,0.412,0,0.602
			l0,0c0.095-0.19,0.285-0.412,0.603-0.507c0.285-0.095,0.603-0.19,0.888-0.19c0.603,0,1.015,0.095,1.3,0.412
			c0.285,0.317,0.412,0.698,0.412,1.3v3.107L108.977,57.622L108.977,57.622z"/>
		<path fill="#FFFFFF" d="M114.779,57.622l-0.095-0.698l0,0c-0.19,0.286-0.508,0.508-0.698,0.603c-0.19,0.096-0.507,0.19-0.888,0.19
			c-0.507,0-0.793-0.095-1.109-0.412c-0.285-0.19-0.412-0.603-0.412-1.015c0-0.888,0.792-1.395,2.314-1.49h0.793v-0.19
			c0-0.412-0.096-0.602-0.19-0.792c-0.19-0.19-0.412-0.285-0.793-0.285s-0.793,0.095-1.3,0.412l-0.19-0.507
			c0.19-0.095,0.508-0.19,0.793-0.286c0.285-0.095,0.603-0.095,0.792-0.095c0.603,0,1.015,0.095,1.205,0.412
			c0.285,0.19,0.412,0.603,0.412,1.205v3.202L114.779,57.622L114.779,57.622z M113.067,57.114c0.412,0,0.792-0.095,1.015-0.412
			c0.285-0.19,0.412-0.603,0.412-1.015v-0.412h-0.729c-0.603,0-1.015,0.095-1.205,0.285c-0.285,0.19-0.412,0.412-0.412,0.698
			c0,0.285,0.096,0.507,0.19,0.602C112.56,57.114,112.877,57.114,113.067,57.114z M113.955,52.422h-0.508
			c-0.189-0.095-0.412-0.412-0.697-0.603c-0.285-0.285-0.412-0.507-0.603-0.698v-0.095h0.888c0.096,0.19,0.19,0.412,0.412,0.697
			C113.765,52.01,113.765,52.2,113.955,52.422L113.955,52.422L113.955,52.422z"/>
		<path fill="#FFFFFF" d="M120.455,57.622v-3.013c0-0.412-0.096-0.697-0.285-0.887c-0.19-0.19-0.413-0.286-0.793-0.286
			c-0.508,0-0.888,0.095-1.11,0.412c-0.189,0.285-0.285,0.698-0.285,1.3v2.504h-0.729v-4.692h0.603l0.096,0.603l0,0
			c0.095-0.19,0.412-0.413,0.603-0.507c0.285-0.095,0.603-0.19,0.888-0.19c0.603,0,1.015,0.095,1.3,0.413
			c0.285,0.317,0.412,0.697,0.412,1.299v3.108L120.455,57.622L120.455,57.622z"/>
		<path fill="#FFFFFF" d="M127.271,52.993V53.5l-0.888,0.096c0.096,0.095,0.19,0.19,0.19,0.412c0.095,0.19,0.095,0.285,0.095,0.507
			c0,0.507-0.189,0.793-0.507,1.109c-0.285,0.285-0.697,0.412-1.3,0.412c-0.096,0-0.285,0-0.412,0
			c-0.285,0.19-0.508,0.412-0.508,0.603c0,0.096,0.096,0.19,0.19,0.285c0.095,0.096,0.285,0.096,0.508,0.096h0.792
			c0.508,0,0.888,0.095,1.205,0.285c0.285,0.19,0.412,0.507,0.412,0.888c0,0.508-0.19,0.888-0.603,1.205s-1.015,0.412-1.807,0.412
			c-0.603,0-1.11-0.095-1.396-0.285s-0.508-0.603-0.508-1.015c0-0.285,0.096-0.508,0.286-0.698c0.189-0.189,0.412-0.412,0.792-0.412
			c-0.095-0.095-0.189-0.095-0.285-0.285c-0.095-0.095-0.095-0.19-0.095-0.412c0-0.19,0-0.285,0.095-0.507
			c0.096-0.096,0.19-0.286,0.412-0.412c-0.19-0.096-0.412-0.286-0.603-0.508c-0.189-0.19-0.189-0.507-0.189-0.792
			c0-0.508,0.189-0.888,0.507-1.205c0.285-0.286,0.697-0.413,1.3-0.413c0.19,0,0.508,0,0.698,0.095L127.271,52.993L127.271,52.993z
			 M123.467,58.414c0,0.286,0.096,0.412,0.285,0.603c0.19,0.096,0.508,0.19,0.889,0.19c0.602,0,1.015-0.095,1.3-0.285
			s0.412-0.412,0.412-0.697c0-0.286-0.096-0.413-0.19-0.508c-0.19-0.095-0.507-0.095-0.888-0.095h-0.888
			c-0.285,0-0.603,0.095-0.793,0.189C123.467,57.907,123.467,58.225,123.467,58.414z M123.784,54.609
			c0,0.286,0.095,0.603,0.285,0.698c0.19,0.19,0.412,0.285,0.793,0.285c0.697,0,1.015-0.285,1.015-1.015
			c0-0.729-0.412-1.109-1.11-1.109c-0.285,0-0.602,0.095-0.792,0.286C123.879,53.912,123.784,54.198,123.784,54.609z"/>
		<path fill="#FFFFFF" d="M134.882,57.02L134.882,57.02c-0.412,0.507-0.888,0.697-1.49,0.697s-1.11-0.19-1.396-0.603
			s-0.507-1.015-0.507-1.807c0-0.793,0.189-1.396,0.507-1.808c0.285-0.412,0.793-0.602,1.396-0.602s1.109,0.19,1.49,0.698h0.095
			V53.31v-0.286v-1.902h0.697v6.595h-0.602L134.882,57.02z M133.486,57.114c0.508,0,0.793-0.095,1.11-0.412
			c0.19-0.285,0.285-0.697,0.285-1.3v-0.19c0-0.697-0.095-1.11-0.285-1.395s-0.603-0.412-1.11-0.412
			c-0.412,0-0.697,0.19-1.015,0.507c-0.19,0.286-0.285,0.793-0.285,1.396c0,0.602,0.095,1.109,0.285,1.395
			C132.758,57.02,132.979,57.114,133.486,57.114z"/>
		<path fill="#FFFFFF" d="M139.574,57.717c-0.697,0-1.204-0.19-1.585-0.603c-0.413-0.412-0.603-1.015-0.603-1.807
			c0-0.793,0.189-1.396,0.603-1.808c0.412-0.412,0.888-0.697,1.49-0.697s1.109,0.19,1.396,0.602c0.285,0.412,0.507,0.888,0.507,1.49
			v0.507h-3.202c0,0.603,0.19,1.015,0.412,1.3c0.285,0.285,0.602,0.412,1.109,0.412s1.015-0.095,1.49-0.285v0.603
			c-0.285,0.095-0.507,0.19-0.697,0.19C140.272,57.717,139.859,57.717,139.574,57.717z M139.986,50.9c-0.095,0-0.189,0-0.285-0.096
			c-0.096,0-0.19-0.095-0.285-0.095c-0.095-0.095-0.19-0.095-0.285-0.095c-0.096,0-0.19-0.096-0.285-0.096
			c-0.096,0-0.191,0-0.286,0.096c-0.095,0.095-0.095,0.19-0.189,0.286h-0.286c0-0.286,0.096-0.508,0.286-0.698
			c0.095-0.19,0.284-0.19,0.507-0.19c0.095,0,0.189,0,0.285,0.095c0.096,0,0.19,0.095,0.285,0.095
			c0.096,0.095,0.19,0.095,0.286,0.095c0.095,0,0.189,0.095,0.189,0.095c0.096,0,0.19,0,0.286-0.095
			c0.095-0.095,0.095-0.19,0.095-0.285h0.412c0,0.285-0.095,0.507-0.285,0.697C140.272,50.805,140.272,50.9,139.986,50.9z
			 M140.779,52.422h-0.412c-0.285-0.19-0.603-0.412-0.888-0.698c-0.286,0.286-0.603,0.507-0.888,0.698h-0.412v-0.127l0.19-0.285
			c0.284-0.413,0.602-0.603,0.696-0.888h0.794C139.859,51.502,140.272,51.819,140.779,52.422L140.779,52.422z M139.479,53.595
			c-0.413,0-0.697,0.095-0.888,0.412c-0.19,0.19-0.412,0.602-0.412,1.015h2.505c0-0.413-0.096-0.792-0.286-1.015
			C140.082,53.722,139.765,53.595,139.479,53.595z"/>
		<path fill="#FFFFFF" d="M149.372,57.02L149.372,57.02c-0.412,0.507-0.888,0.697-1.49,0.697s-1.109-0.19-1.396-0.603
			c-0.285-0.412-0.507-1.015-0.507-1.807c0-0.793,0.19-1.396,0.507-1.808c0.286-0.412,0.793-0.602,1.396-0.602
			s1.109,0.19,1.49,0.698h0.095V53.31v-0.286v-1.902h0.698v6.595h-0.603L149.372,57.02z M147.882,57.114
			c0.507,0,0.793-0.095,1.109-0.412c0.19-0.285,0.285-0.697,0.285-1.3v-0.19c0-0.697-0.095-1.11-0.285-1.395
			s-0.603-0.412-1.109-0.412c-0.412,0-0.697,0.19-1.015,0.507c-0.19,0.286-0.285,0.793-0.285,1.396c0,0.602,0.095,1.109,0.285,1.395
			C147.279,57.02,147.47,57.114,147.882,57.114z"/>
		<path fill="#FFFFFF" d="M154.984,57.622l-0.096-0.698l0,0c-0.189,0.286-0.507,0.508-0.697,0.603
			c-0.19,0.096-0.507,0.19-0.888,0.19c-0.508,0-0.793-0.095-1.109-0.412c-0.286-0.19-0.413-0.603-0.413-1.015
			c0-0.888,0.793-1.395,2.315-1.49h0.792v-0.19c0-0.412-0.095-0.602-0.189-0.792c-0.19-0.19-0.413-0.285-0.793-0.285
			c-0.412,0-0.793,0.095-1.3,0.412l-0.19-0.507c0.19-0.095,0.507-0.19,0.793-0.286c0.285-0.095,0.602-0.095,0.792-0.095
			c0.603,0,1.015,0.095,1.205,0.412c0.285,0.19,0.412,0.603,0.412,1.205v3.202L154.984,57.622L154.984,57.622z M153.367,57.114
			c0.412,0,0.793-0.095,1.015-0.412c0.285-0.19,0.412-0.603,0.412-1.015v-0.412h-0.697c-0.603,0-1.015,0.095-1.205,0.285
			c-0.285,0.19-0.412,0.412-0.412,0.698c0,0.285,0.095,0.507,0.19,0.602C152.892,57.114,153.082,57.114,153.367,57.114z
			 M154.286,52.422h-0.507c-0.19-0.095-0.412-0.412-0.697-0.603c-0.286-0.285-0.412-0.507-0.603-0.698v-0.095h0.888
			c0.095,0.19,0.19,0.412,0.412,0.697C153.874,52.01,153.97,52.2,154.286,52.422L154.286,52.422L154.286,52.422z"/>
		<path fill="#FFFFFF" d="M160.882,57.622v-3.013c0-0.412-0.096-0.697-0.285-0.887c-0.19-0.19-0.412-0.286-0.793-0.286
			c-0.508,0-0.888,0.095-1.11,0.412c-0.189,0.285-0.285,0.698-0.285,1.3v2.504h-0.697v-4.692h0.603l0.095,0.603l0,0
			c0.096-0.19,0.412-0.413,0.604-0.507c0.284-0.095,0.602-0.19,0.887-0.19c0.604,0,1.015,0.095,1.3,0.413
			c0.286,0.317,0.413,0.697,0.413,1.299v3.108L160.882,57.622L160.882,57.622z"/>
		<path fill="#FFFFFF" d="M167.477,52.993V53.5l-0.888,0.096c0.095,0.095,0.19,0.19,0.19,0.412c0.096,0.19,0.096,0.285,0.096,0.507
			c0,0.507-0.191,0.793-0.508,1.109c-0.285,0.285-0.698,0.412-1.3,0.412c-0.095,0-0.286,0-0.413,0
			c-0.285,0.19-0.507,0.412-0.507,0.603c0,0.096,0.095,0.19,0.19,0.285c0.096,0.096,0.285,0.096,0.508,0.096h0.792
			c0.508,0,0.888,0.095,1.205,0.285c0.285,0.19,0.412,0.507,0.412,0.888c0,0.508-0.19,0.888-0.603,1.205
			c-0.412,0.285-1.015,0.412-1.807,0.412c-0.604,0-1.11-0.095-1.396-0.285s-0.507-0.603-0.507-1.015
			c0-0.285,0.095-0.508,0.284-0.698c0.19-0.189,0.413-0.412,0.793-0.412c-0.095-0.095-0.19-0.095-0.285-0.285
			c-0.095-0.095-0.095-0.19-0.095-0.412c0-0.19,0-0.285,0.095-0.507c0.095-0.096,0.19-0.286,0.412-0.412
			c-0.19-0.096-0.412-0.286-0.603-0.508c-0.189-0.19-0.189-0.507-0.189-0.792c0-0.508,0.189-0.888,0.507-1.205
			c0.285-0.286,0.697-0.413,1.3-0.413c0.19,0,0.507,0,0.697,0.095L167.477,52.993L167.477,52.993z M163.767,58.414
			c0,0.286,0.096,0.412,0.286,0.603c0.189,0.096,0.507,0.19,0.888,0.19c0.603,0,1.015-0.095,1.3-0.285s0.412-0.412,0.412-0.697
			c0-0.286-0.095-0.413-0.189-0.508c-0.191-0.095-0.508-0.095-0.889-0.095h-0.888c-0.285,0-0.603,0.095-0.792,0.189
			C163.767,57.907,163.767,58.225,163.767,58.414z M164.084,54.609c0,0.286,0.095,0.603,0.285,0.698
			c0.19,0.19,0.412,0.285,0.793,0.285c0.697,0,1.015-0.285,1.015-1.015c0-0.729-0.412-1.109-1.109-1.109
			c-0.286,0-0.603,0.095-0.793,0.286C164.274,53.912,164.084,54.198,164.084,54.609z"/>
		<path fill="#FFFFFF" d="M175.086,57.622v-3.013c0-0.412-0.095-0.697-0.284-0.887c-0.19-0.19-0.413-0.286-0.793-0.286
			c-0.508,0-0.888,0.095-1.109,0.412c-0.19,0.285-0.286,0.698-0.286,1.3v2.504h-0.603v-6.595h0.698v1.998c0,0.19,0,0.412,0,0.602
			l0,0c0.095-0.19,0.285-0.412,0.603-0.507c0.284-0.095,0.602-0.19,0.888-0.19c0.603,0,1.015,0.095,1.3,0.412
			c0.285,0.317,0.412,0.698,0.412,1.3v3.107L175.086,57.622L175.086,57.622z"/>
		<path fill="#FFFFFF" d="M181.999,55.308c0,0.792-0.19,1.395-0.603,1.807s-0.888,0.603-1.585,0.603
			c-0.413,0-0.793-0.095-1.11-0.285c-0.285-0.19-0.603-0.508-0.793-0.793c-0.189-0.412-0.285-0.793-0.285-1.3
			c0-0.792,0.19-1.395,0.603-1.807s0.888-0.603,1.586-0.603c0.602,0,1.109,0.19,1.49,0.603c0.095,0,0.285-0.095,0.285-0.19
			c0.095-0.095,0.095-0.19,0.19-0.412c0-0.095,0.095-0.412,0.095-0.698h0.793l0.095,0.096c-0.095,0.412-0.19,0.792-0.412,1.014
			c-0.19,0.285-0.412,0.413-0.697,0.507C181.872,54.419,181.999,54.895,181.999,55.308z M178.384,55.308
			c0,0.602,0.096,1.109,0.286,1.395s0.603,0.508,1.109,0.508c0.508,0,0.888-0.19,1.109-0.508c0.19-0.285,0.286-0.793,0.286-1.395
			c0-0.603-0.096-1.11-0.286-1.396c-0.189-0.286-0.602-0.507-1.109-0.507c-0.507,0-0.888,0.19-1.109,0.507
			C178.574,54.292,178.384,54.8,178.384,55.308z"/>
		<path fill="#FFFFFF" d="M187.072,57.622v-3.013c0-0.412-0.096-0.697-0.286-0.887c-0.189-0.19-0.412-0.286-0.792-0.286
			c-0.508,0-0.888,0.095-1.11,0.412c-0.222,0.317-0.285,0.698-0.285,1.3v2.504h-0.603v-4.692h0.603l0.096,0.603l0,0
			c0.095-0.19,0.412-0.413,0.603-0.507c0.285-0.095,0.602-0.19,0.888-0.19c0.602,0,1.015,0.095,1.3,0.413
			c0.285,0.317,0.412,0.697,0.412,1.299v3.108L187.072,57.622L187.072,57.622z"/>
	</g>
	<path fill="#FFFFFF" d="M48.765,8L15.06,11.012c-3.9,0.412-5.01,2.188-5.01,4.915v34.466c0,2.695,2.188,4.915,4.915,4.915h0.286
		c0.603-2.505,2.79-4.407,5.517-4.407c2.727,0,5.01,1.902,5.517,4.407h11.795c0.603-2.505,2.79-4.407,5.517-4.407
		s5.01,1.902,5.517,4.407c2.505-0.191,4.598-2.315,4.598-4.915V12.788C53.457,10.188,51.365,8,48.765,8z M48.162,37.52
		c-0.19,1.807-0.698,3.393-1.49,4.915c-0.792,1.395-1.807,2.6-3.107,3.615c-1.3,0.888-2.79,1.585-4.502,1.902
		c-1.015,0.19-2.093,0.19-3.012,0.19c-1.015-0.095-1.807-0.286-2.505-0.603c-0.697-0.285-1.395-0.602-1.902-1.014
		c-0.507-0.413-1.3-0.888-2.188-1.585l0.095,0.697c0.19,1.3,0.095,2.315-0.412,3.107c-0.507,0.793-1.205,1.205-2.188,1.396
		c-1.015,0.19-1.808,0-2.505-0.603c-0.698-0.603-1.205-1.49-1.396-2.791L18.04,17.1c-0.19-1.3-0.19-2.41,0.286-3.202
		c0.412-0.792,1.109-1.3,2.092-1.49c1.11-0.19,1.903,0,2.6,0.603c0.698,0.602,1.11,1.49,1.395,2.695l1.902,10.305
		c1.015-1.585,2.188-2.791,3.393-3.805c1.205-0.888,2.79-1.585,4.788-1.902c2.315-0.412,4.313-0.19,6.088,0.507
		c1.902,0.792,3.488,2.093,4.788,3.995c1.3,1.902,2.188,4.186,2.695,6.912C48.353,33.81,48.353,35.712,48.162,37.52z"/>
	<path fill="#FFFFFF" d="M39.538,28.8c-0.698-1.205-1.712-2.093-2.695-2.6c-1.11-0.507-2.188-0.698-3.488-0.507
		c-1.3,0.19-2.41,0.793-3.298,1.712c-0.888,0.888-1.49,2.093-1.807,3.488s-0.412,3.107,0,4.915c0.507,2.695,1.49,4.693,3.012,5.803
		c1.49,1.205,3.297,1.712,5.295,1.3c1.712-0.285,3.107-1.3,3.995-3.012c1.015-1.712,1.205-3.995,0.698-6.595
		C40.837,31.495,40.362,30.005,39.538,28.8z"/>
	<circle fill="#FFFFFF" cx="43.564" cy="56.512" r="3.488"/>
	<circle fill="#FFFFFF" cx="20.735" cy="56.512" r="3.488"/>
</g>
</svg>
