<svg id="Layer_1" data-name="Layer 1" xmlns="http://www.w3.org/2000/svg" viewBox="0 0 90 66.56"><defs><style>.cls-1{fill:#1c95d2;stroke:#000;stroke-miterlimit:10;stroke-width:0.22px;}.cls-2{fill:#13568e;}.cls-3{fill:#d9f7ff;}</style></defs><title>icon</title><rect class="cls-1" x="8.19" y="10.83" width="71.06" height="45.32"/><path class="cls-2" d="M10.27,9H77.13A3.86,3.86,0,0,1,81,12.82v0a0,0,0,0,1,0,0H6.42a0,0,0,0,1,0,0v0A3.86,3.86,0,0,1,10.27,9Z"/><polygon class="cls-3" points="1.65 54.61 35.17 54.61 37.71 57.16 48.78 57.16 51.83 54.1 84.62 54.1 84.62 61.58 81.53 64.68 5.96 64.68 1.87 60.59 1.65 54.61"/><path class="cls-2" d="M87.4,54.27a2.2,2.2,0,0,0-1.92-1.87H81V12.66a1.88,1.88,0,0,0-3.76,0V52.4H51.49a2,2,0,0,0-1.92,1.93v0.39a0.29,0.29,0,0,1-.31.34H38a0.36,0.36,0,0,1-.4-0.34V54.32a1.93,1.93,0,0,0-1.83-1.93H10V12.66a1.77,1.77,0,1,0-3.54,0V52.4H1.82A1.9,1.9,0,0,0,0,54.32V58.5a8.09,8.09,0,0,0,8.1,8.06H79.19A8.15,8.15,0,0,0,87.4,58.5V54.27ZM8.32,56.15H34.23A4.05,4.05,0,0,0,38,58.81H49.26A4.05,4.05,0,0,0,53,56.16h30.6V58.5A4.55,4.55,0,0,1,79.17,63H8.1A4.6,4.6,0,0,1,3.54,58.5V56.16H8.32Z"/><path class="cls-2" d="M66.7,28.39a3.12,3.12,0,0,1-3.12-3.12V23.08a5.07,5.07,0,0,1-4.2-5v-13A5.08,5.08,0,0,1,64.46,0H84.93A5.06,5.06,0,0,1,90,5.08v13a5.08,5.08,0,0,1-5.08,5.08H72.65L69.06,27.3A3.1,3.1,0,0,1,66.7,28.39Z"/><path class="cls-2" d="M66.7,27.73a2.46,2.46,0,0,1-2.46-2.46V22.49A4.42,4.42,0,0,1,60,18.08v-13A4.42,4.42,0,0,1,64.46.66H84.93a4.4,4.4,0,0,1,4.4,4.41v13a4.42,4.42,0,0,1-4.41,4.41H72.35l-3.78,4.38A2.44,2.44,0,0,1,66.7,27.73Z"/><path class="cls-3" d="M51.58,24.21a15,15,0,0,0-2.84-.3,2.2,2.2,0,0,0-1.87.63,3,3,0,0,0-.33,1.67v2.54h5.12L51.23,34H46.55V49.94H40.17V34h-3.3V28.75h3.3V25.51q0-6.94,7.31-6.94a18.26,18.26,0,0,1,2.49.17l2.41,0.46Z"/><path class="cls-3" d="M66.9,19.84H64.46a1.76,1.76,0,0,1-1.76-1.76v-13a1.76,1.76,0,0,1,1.76-1.76H84.93a1.74,1.74,0,0,1,1.24.52,1.71,1.71,0,0,1,.5,1.22v13a1.76,1.76,0,0,1-1.76,1.76H71.13l-4.23,4.9V19.84Z"/></svg>