<svg id="Layer_1" data-name="Layer 1" xmlns="http://www.w3.org/2000/svg" viewBox="0 0 71 67.88"><defs><style>.cls-1{fill:#1c95d2;}.cls-2{fill:#d9f7ff;}.cls-3{fill:#13568e;}</style></defs><title>icon</title><rect class="cls-1" x="2.47" y="2.26" width="66.34" height="39.94"/><polygon class="cls-2" points="29.17 54.66 24.78 65.22 47.69 65.22 43.31 56.04 40.88 54.66 29.17 54.66"/><rect class="cls-2" x="2.47" y="42.21" width="66.34" height="11.21"/><rect class="cls-2" x="8.9" y="8.44" width="52.5" height="8.37"/><path class="cls-3" d="M65.38,0H5.62A5.62,5.62,0,0,0,0,5.62v44.8A5.62,5.62,0,0,0,5.62,56H25.54l-2.75,8.26H20.52a1.79,1.79,0,0,0,0,3.59h30a1.79,1.79,0,0,0,0-3.59H48.21L45.46,56H65.38A5.62,5.62,0,0,0,71,50.42V5.62A5.62,5.62,0,0,0,65.38,0h0ZM5.62,3.59H65.38a2,2,0,0,1,2,2v34.8H3.59V5.62a2,2,0,0,1,2-2h0ZM44.43,64.29H26.57L29.32,56H41.68Zm21-11.84H5.62a2,2,0,0,1-2-2V44H67.41v6.42a2,2,0,0,1-2,2h0Zm0,0"/><path class="cls-3" d="M35.5,46.66a1.79,1.79,0,1,0,1.27.53,1.8,1.8,0,0,0-1.27-.53h0Zm0,0"/><path class="cls-3" d="M9.28,18.57H61.72a1.79,1.79,0,0,0,1.79-1.79V9.29a1.79,1.79,0,0,0-1.79-1.79H9.28A1.79,1.79,0,0,0,7.49,9.29v7.49a1.79,1.79,0,0,0,1.79,1.79h0Zm1.79-7.49H59.92V15H11.08V11.08Zm0,0"/><path class="cls-2" d="M15.82,34.79a4.9,4.9,0,1,0-4.9-4.9,4.9,4.9,0,0,0,4.9,4.9h0Z"/><path class="cls-2" d="M54.88,34.79a4.9,4.9,0,1,0-4.9-4.9,4.9,4.9,0,0,0,4.9,4.9h0Zm0-7.43"/><path class="cls-2" d="M35.35,34.79a4.9,4.9,0,1,0-4.9-4.9,4.9,4.9,0,0,0,4.9,4.9h0Zm0-7.43"/><path class="cls-2" d="M15.82,34.79a4.9,4.9,0,1,0-4.9-4.9,4.9,4.9,0,0,0,4.9,4.9h0Z"/><path class="cls-2" d="M54.88,34.79a4.9,4.9,0,1,0-4.9-4.9,4.9,4.9,0,0,0,4.9,4.9h0Zm0-7.43"/><path class="cls-2" d="M35.35,34.79a4.9,4.9,0,1,0-4.9-4.9,4.9,4.9,0,0,0,4.9,4.9h0Zm0-7.43"/></svg>